<svg width="19" height="23" viewBox="0 0 19 23" fill="none" xmlns="http://www.w3.org/2000/svg">
<path d="M15.5345 5.1412C15.4029 5.06873 15.2731 4.98821 15.149 4.89963C14.7861 4.64195 14.4532 4.33998 14.158 3.99774C13.4189 3.09183 13.1425 2.17183 13.041 1.52964H13.0447C12.9601 0.99616 12.994 0.649902 12.9996 0.649902H9.62978V14.5949C9.62978 14.7821 9.62978 14.9673 9.62226 15.1505C9.62226 15.1727 9.62038 15.1948 9.6185 15.219C9.6185 15.229 9.6185 15.2391 9.61662 15.2492V15.2572C9.54516 16.2738 9.00546 17.1838 8.17805 17.6871C7.75306 17.9467 7.27354 18.0816 6.78462 18.0816C5.21442 18.0816 3.94321 16.7107 3.94321 15.0197C3.94321 13.3286 5.21442 11.9577 6.78462 11.9577C7.08173 11.9577 7.37697 12.008 7.65904 12.1066L7.6628 8.43469C5.929 8.19513 4.18015 8.7427 2.84125 9.94454C2.26018 10.4841 1.77314 11.1283 1.39892 11.849C1.25601 12.1107 0.72007 13.1656 0.654253 14.8787C0.612882 15.8511 0.885553 16.8576 1.01531 17.2723V17.2804C1.09617 17.526 1.41397 18.3615 1.92922 19.0661C2.34481 19.6317 2.83749 20.129 3.38847 20.5397V20.5316L3.39599 20.5397C5.02637 21.7254 6.83539 21.6489 6.83539 21.6489C7.14755 21.6348 8.19686 21.6489 9.3872 21.045C10.7073 20.3746 11.4595 19.3781 11.4595 19.3781C11.939 18.7822 12.3226 18.1018 12.5897 17.369C12.8943 16.5114 12.9958 15.4827 12.9958 15.07V7.67171C13.0372 7.69789 13.5807 8.08239 13.5807 8.08239C13.5807 8.08239 14.3648 8.6199 15.589 8.97019C16.4672 9.21981 17.65 9.27216 17.65 9.27216V5.6928C17.2363 5.74112 16.3939 5.6002 15.5326 5.1412H15.5345Z" stroke="#032852" stroke-width="1.3" stroke-linejoin="round"/>
</svg>
