<svg width="539" height="34" viewBox="0 0 539 34" fill="none" xmlns="http://www.w3.org/2000/svg">
<path d="M18.625 3.57812V6.3125H10.8906V26.5312H7.73438V6.3125H0V3.57812H18.625ZM20 9.79688H22.6719V12.6875C22.8906 12.125 23.4271 11.4427 24.2812 10.6406C25.1354 9.82812 26.1198 9.42188 27.2344 9.42188C27.2865 9.42188 27.375 9.42708 27.5 9.4375C27.625 9.44792 27.8385 9.46875 28.1406 9.5V12.4688C27.974 12.4375 27.8177 12.4167 27.6719 12.4062C27.5365 12.3958 27.3854 12.3906 27.2188 12.3906C25.8021 12.3906 24.7135 12.849 23.9531 13.7656C23.1927 14.6719 22.8125 15.7188 22.8125 16.9062V26.5312H20V9.79688ZM32.7344 22.0781C32.7344 22.8906 33.0312 23.5312 33.625 24C34.2188 24.4688 34.9219 24.7031 35.7344 24.7031C36.724 24.7031 37.6823 24.474 38.6094 24.0156C40.1719 23.2552 40.9531 22.0104 40.9531 20.2812V18.0156C40.6094 18.2344 40.1667 18.4167 39.625 18.5625C39.0833 18.7083 38.5521 18.8125 38.0312 18.875L36.3281 19.0938C35.3073 19.2292 34.5417 19.4427 34.0312 19.7344C33.1667 20.224 32.7344 21.0052 32.7344 22.0781ZM39.5469 16.3906C40.1927 16.3073 40.625 16.0365 40.8438 15.5781C40.9688 15.3281 41.0312 14.9688 41.0312 14.5C41.0312 13.5417 40.6875 12.849 40 12.4219C39.3229 11.9844 38.349 11.7656 37.0781 11.7656C35.6094 11.7656 34.5677 12.1615 33.9531 12.9531C33.6094 13.3906 33.3854 14.0417 33.2812 14.9062H30.6562C30.7083 12.8438 31.375 11.4115 32.6562 10.6094C33.9479 9.79688 35.4427 9.39062 37.1406 9.39062C39.1094 9.39062 40.7083 9.76562 41.9375 10.5156C43.1562 11.2656 43.7656 12.4323 43.7656 14.0156V23.6562C43.7656 23.9479 43.8229 24.1823 43.9375 24.3594C44.0625 24.5365 44.3177 24.625 44.7031 24.625C44.8281 24.625 44.9688 24.6198 45.125 24.6094C45.2812 24.5885 45.4479 24.5625 45.625 24.5312V26.6094C45.1875 26.7344 44.8542 26.8125 44.625 26.8438C44.3958 26.875 44.0833 26.8906 43.6875 26.8906C42.7188 26.8906 42.0156 26.5469 41.5781 25.8594C41.349 25.4948 41.1875 24.9792 41.0938 24.3125C40.5208 25.0625 39.6979 25.7135 38.625 26.2656C37.5521 26.8177 36.3698 27.0938 35.0781 27.0938C33.526 27.0938 32.2552 26.625 31.2656 25.6875C30.2865 24.7396 29.7969 23.5573 29.7969 22.1406C29.7969 20.5885 30.2812 19.3854 31.25 18.5312C32.2188 17.6771 33.4896 17.151 35.0625 16.9531L39.5469 16.3906ZM48.3906 9.79688H51.0625V12.1719C51.8542 11.1927 52.6927 10.4896 53.5781 10.0625C54.4635 9.63542 55.4479 9.42188 56.5312 9.42188C58.9062 9.42188 60.5104 10.25 61.3438 11.9062C61.8021 12.8125 62.0312 14.1094 62.0312 15.7969V26.5312H59.1719V15.9844C59.1719 14.9635 59.0208 14.1406 58.7188 13.5156C58.2188 12.474 57.3125 11.9531 56 11.9531C55.3333 11.9531 54.7865 12.0208 54.3594 12.1562C53.5885 12.3854 52.9115 12.8438 52.3281 13.5312C51.8594 14.0833 51.5521 14.6562 51.4062 15.25C51.2708 15.8333 51.2031 16.6719 51.2031 17.7656V26.5312H48.3906V9.79688ZM72.1094 9.5C73.4219 9.5 74.5677 9.82292 75.5469 10.4688C76.0781 10.8333 76.6198 11.3646 77.1719 12.0625V9.95312H79.7656V25.1719C79.7656 27.2969 79.4531 28.974 78.8281 30.2031C77.6615 32.474 75.4583 33.6094 72.2188 33.6094C70.4167 33.6094 68.901 33.2031 67.6719 32.3906C66.4427 31.5885 65.7552 30.3281 65.6094 28.6094H68.4688C68.6042 29.3594 68.875 29.9375 69.2812 30.3438C69.9167 30.9688 70.9167 31.2812 72.2812 31.2812C74.4375 31.2812 75.849 30.5208 76.5156 29C76.9115 28.1042 77.0938 26.5052 77.0625 24.2031C76.5 25.0573 75.8229 25.6927 75.0312 26.1094C74.2396 26.526 73.1927 26.7344 71.8906 26.7344C70.0781 26.7344 68.4896 26.0938 67.125 24.8125C65.7708 23.5208 65.0938 21.3906 65.0938 18.4219C65.0938 15.6198 65.776 13.4323 67.1406 11.8594C68.5156 10.2865 70.1719 9.5 72.1094 9.5ZM77.1719 18.0938C77.1719 16.0208 76.7448 14.4844 75.8906 13.4844C75.0365 12.4844 73.9479 11.9844 72.625 11.9844C70.6458 11.9844 69.2917 12.9115 68.5625 14.7656C68.1771 15.7552 67.9844 17.0521 67.9844 18.6562C67.9844 20.5417 68.3646 21.9792 69.125 22.9688C69.8958 23.9479 70.9271 24.4375 72.2188 24.4375C74.2396 24.4375 75.6615 23.526 76.4844 21.7031C76.9427 20.6719 77.1719 19.4688 77.1719 18.0938ZM108.281 9.3125C110.167 9.3125 111.698 9.77083 112.875 10.6875C114.062 11.6042 114.776 13.1823 115.016 15.4219H112.281C112.115 14.3906 111.734 13.5365 111.141 12.8594C110.547 12.1719 109.594 11.8281 108.281 11.8281C106.49 11.8281 105.208 12.7031 104.438 14.4531C103.938 15.5885 103.688 16.9896 103.688 18.6562C103.688 20.3333 104.042 21.7448 104.75 22.8906C105.458 24.0365 106.573 24.6094 108.094 24.6094C109.26 24.6094 110.182 24.2552 110.859 23.5469C111.547 22.8281 112.021 21.849 112.281 20.6094H115.016C114.703 22.8281 113.922 24.4531 112.672 25.4844C111.422 26.5052 109.823 27.0156 107.875 27.0156C105.688 27.0156 103.943 26.2188 102.641 24.625C101.339 23.0208 100.688 21.0208 100.688 18.625C100.688 15.6875 101.401 13.401 102.828 11.7656C104.255 10.1302 106.073 9.3125 108.281 9.3125ZM117.828 3.5H120.641V12.0625C121.307 11.2188 121.906 10.625 122.438 10.2812C123.344 9.6875 124.474 9.39062 125.828 9.39062C128.255 9.39062 129.901 10.2396 130.766 11.9375C131.234 12.8646 131.469 14.151 131.469 15.7969V26.5312H128.578V15.9844C128.578 14.7552 128.422 13.8542 128.109 13.2812C127.599 12.3646 126.641 11.9062 125.234 11.9062C124.068 11.9062 123.01 12.3073 122.062 13.1094C121.115 13.9115 120.641 15.4271 120.641 17.6562V26.5312H117.828V3.5ZM138.453 9.79688V20.9062C138.453 21.7604 138.589 22.4583 138.859 23C139.359 24 140.292 24.5 141.656 24.5C143.615 24.5 144.948 23.625 145.656 21.875C146.042 20.9375 146.234 19.651 146.234 18.0156V9.79688H149.047V26.5312H146.391L146.422 24.0625C146.057 24.6979 145.604 25.2344 145.062 25.6719C143.99 26.5469 142.688 26.9844 141.156 26.9844C138.771 26.9844 137.146 26.1875 136.281 24.5938C135.812 23.7396 135.578 22.599 135.578 21.1719V9.79688H138.453ZM142.484 3.89062C142.328 3.78646 142.167 3.71354 142 3.67188C141.844 3.61979 141.646 3.59375 141.406 3.59375C141.156 3.59375 140.818 3.625 140.391 3.6875L140.328 2.45312C140.557 2.42188 140.781 2.39583 141 2.375C141.229 2.35417 141.448 2.34375 141.656 2.34375C142.188 2.34375 142.677 2.43229 143.125 2.60938C143.573 2.77604 143.969 3.10417 144.312 3.59375C144.406 3.72917 144.484 3.90625 144.547 4.125C144.62 4.34375 144.656 4.57812 144.656 4.82812C144.656 5.03646 144.625 5.25 144.562 5.46875C144.5 5.6875 144.391 5.89583 144.234 6.09375C144.078 6.28125 143.865 6.44792 143.594 6.59375C143.333 6.73958 143.005 6.85417 142.609 6.9375L142.547 7.625H141.172V6.4375C141.797 6.375 142.276 6.19271 142.609 5.89062C142.953 5.57812 143.125 5.24479 143.125 4.89062C143.125 4.70312 143.073 4.52604 142.969 4.35938C142.865 4.18229 142.703 4.02604 142.484 3.89062ZM167.578 3.57812H169.953L162.672 26.5312H160.297L167.578 3.57812ZM180.734 5.125H183.578V9.79688H186.25V12.0938H183.578V23.0156C183.578 23.599 183.776 23.9896 184.172 24.1875C184.391 24.3021 184.755 24.3594 185.266 24.3594C185.401 24.3594 185.547 24.3594 185.703 24.3594C185.859 24.349 186.042 24.3333 186.25 24.3125V26.5312C185.927 26.625 185.589 26.6927 185.234 26.7344C184.891 26.776 184.516 26.7969 184.109 26.7969C182.797 26.7969 181.906 26.4635 181.438 25.7969C180.969 25.1198 180.734 24.2448 180.734 23.1719V12.0938H178.469V9.79688H180.734V5.125ZM189.078 9.875H191.938V26.5312H189.078V9.875ZM189.078 3.57812H191.938V6.76562H189.078V3.57812ZM196.203 9.79688H198.875V12.1719C199.667 11.1927 200.505 10.4896 201.391 10.0625C202.276 9.63542 203.26 9.42188 204.344 9.42188C206.719 9.42188 208.323 10.25 209.156 11.9062C209.615 12.8125 209.844 14.1094 209.844 15.7969V26.5312H206.984V15.9844C206.984 14.9635 206.833 14.1406 206.531 13.5156C206.031 12.474 205.125 11.9531 203.812 11.9531C203.146 11.9531 202.599 12.0208 202.172 12.1562C201.401 12.3854 200.724 12.8438 200.141 13.5312C199.672 14.0833 199.365 14.6562 199.219 15.25C199.083 15.8333 199.016 16.6719 199.016 17.7656V26.5312H196.203V9.79688ZM223.484 5.125H226.328V9.79688H229V12.0938H226.328V23.0156C226.328 23.599 226.526 23.9896 226.922 24.1875C227.141 24.3021 227.505 24.3594 228.016 24.3594C228.151 24.3594 228.297 24.3594 228.453 24.3594C228.609 24.349 228.792 24.3333 229 24.3125V26.5312C228.677 26.625 228.339 26.6927 227.984 26.7344C227.641 26.776 227.266 26.7969 226.859 26.7969C225.547 26.7969 224.656 26.4635 224.188 25.7969C223.719 25.1198 223.484 24.2448 223.484 23.1719V12.0938H221.219V9.79688H223.484V5.125ZM234.641 9.79688V20.9062C234.641 21.7604 234.776 22.4583 235.047 23C235.547 24 236.479 24.5 237.844 24.5C239.802 24.5 241.135 23.625 241.844 21.875C242.229 20.9375 242.422 19.651 242.422 18.0156V9.79688H245.234V12.2188C245.443 12.2292 245.672 12.2083 245.922 12.1562C246.422 12.125 246.875 12.026 247.281 11.8594L247.453 11.7812C247.505 11.75 247.557 11.7083 247.609 11.6562L246.969 10.0938L250.109 8.78125L251.391 11.875L248.469 13.0781C247.354 13.5469 246.276 13.7604 245.234 13.7188V26.5312H242.578L242.609 24.0625C242.245 24.6979 241.792 25.2344 241.25 25.6719C240.177 26.5469 238.875 26.9844 237.344 26.9844C234.958 26.9844 233.333 26.1875 232.469 24.5938C232 23.7396 231.766 22.599 231.766 21.1719V9.79688H234.641ZM242.391 3.35938L238.219 7.875H236.062L238.922 3.35938H242.391ZM260.625 9.3125C262.51 9.3125 264.042 9.77083 265.219 10.6875C266.406 11.6042 267.12 13.1823 267.359 15.4219H264.625C264.458 14.3906 264.078 13.5365 263.484 12.8594C262.891 12.1719 261.938 11.8281 260.625 11.8281C258.833 11.8281 257.552 12.7031 256.781 14.4531C256.281 15.5885 256.031 16.9896 256.031 18.6562C256.031 20.3333 256.385 21.7448 257.094 22.8906C257.802 24.0365 258.917 24.6094 260.438 24.6094C261.604 24.6094 262.526 24.2552 263.203 23.5469C263.891 22.8281 264.365 21.849 264.625 20.6094H267.359C267.047 22.8281 266.266 24.4531 265.016 25.4844C263.766 26.5052 262.167 27.0156 260.219 27.0156C258.031 27.0156 256.286 26.2188 254.984 24.625C253.682 23.0208 253.031 21.0208 253.031 18.625C253.031 15.6875 253.745 13.401 255.172 11.7656C256.599 10.1302 258.417 9.3125 260.625 9.3125ZM284.297 3.57812H286.672L279.391 26.5312H277.016L284.297 3.57812ZM304.703 23.3594V26.6875L302.594 26.7656C300.49 26.8385 299.052 26.474 298.281 25.6719C297.781 25.1615 297.531 24.375 297.531 23.3125V12.8281H295.156V9.65625H297.531V4.90625H301.938V9.65625H304.703V12.8281H301.938V21.8281C301.938 22.526 302.026 22.9635 302.203 23.1406C302.38 23.3073 302.922 23.3906 303.828 23.3906C303.964 23.3906 304.104 23.3906 304.25 23.3906C304.406 23.3802 304.557 23.3698 304.703 23.3594ZM322.953 16.5312V26.5312H318.406V16.1719C318.406 15.2552 318.25 14.5156 317.938 13.9531C317.531 13.1615 316.76 12.7656 315.625 12.7656C314.448 12.7656 313.552 13.1615 312.938 13.9531C312.333 14.7344 312.031 15.8542 312.031 17.3125V26.5312H307.594V3.57812H312.031V11.7188C312.677 10.7292 313.422 10.0417 314.266 9.65625C315.12 9.26042 316.016 9.0625 316.953 9.0625C318.005 9.0625 318.958 9.24479 319.812 9.60938C320.677 9.97396 321.385 10.5312 321.938 11.2812C322.406 11.9167 322.693 12.5729 322.797 13.25C322.901 13.9167 322.953 15.0104 322.953 16.5312ZM341.703 21.5312C341.589 22.5417 341.062 23.5677 340.125 24.6094C338.667 26.2656 336.625 27.0938 334 27.0938C331.833 27.0938 329.922 26.3958 328.266 25C326.609 23.6042 325.781 21.3333 325.781 18.1875C325.781 15.2396 326.526 12.9792 328.016 11.4062C329.516 9.83333 331.458 9.04688 333.844 9.04688C335.26 9.04688 336.536 9.3125 337.672 9.84375C338.807 10.375 339.745 11.2135 340.484 12.3594C341.151 13.3698 341.583 14.5417 341.781 15.875C341.896 16.6562 341.943 17.7812 341.922 19.25H330.266C330.328 20.9583 330.865 22.1562 331.875 22.8438C332.49 23.2708 333.229 23.4844 334.094 23.4844C335.01 23.4844 335.755 23.224 336.328 22.7031C336.641 22.4219 336.917 22.0312 337.156 21.5312H341.703ZM337.297 16.3125C337.224 15.1354 336.865 14.2448 336.219 13.6406C335.583 13.026 334.792 12.7188 333.844 12.7188C332.812 12.7188 332.01 13.0417 331.438 13.6875C330.875 14.3333 330.521 15.2083 330.375 16.3125H337.297ZM359.141 11.6562C360.578 13.4583 361.297 15.5885 361.297 18.0469C361.297 20.5469 360.578 22.6875 359.141 24.4688C357.703 26.2396 355.521 27.125 352.594 27.125C349.667 27.125 347.484 26.2396 346.047 24.4688C344.609 22.6875 343.891 20.5469 343.891 18.0469C343.891 15.5885 344.609 13.4583 346.047 11.6562C347.484 9.85417 349.667 8.95312 352.594 8.95312C355.521 8.95312 357.703 9.85417 359.141 11.6562ZM352.578 12.7188C351.276 12.7188 350.271 13.1823 349.562 14.1094C348.865 15.026 348.516 16.3385 348.516 18.0469C348.516 19.7552 348.865 21.0729 349.562 22C350.271 22.9271 351.276 23.3906 352.578 23.3906C353.88 23.3906 354.88 22.9271 355.578 22C356.276 21.0729 356.625 19.7552 356.625 18.0469C356.625 16.3385 356.276 15.026 355.578 14.1094C354.88 13.1823 353.88 12.7188 352.578 12.7188ZM381.203 23.3594V26.6875L379.094 26.7656C376.99 26.8385 375.552 26.474 374.781 25.6719C374.281 25.1615 374.031 24.375 374.031 23.3125V12.8281H371.656V9.65625H374.031V4.90625H378.438V9.65625H381.203V12.8281H378.438V21.8281C378.438 22.526 378.526 22.9635 378.703 23.1406C378.88 23.3073 379.422 23.3906 380.328 23.3906C380.464 23.3906 380.604 23.3906 380.75 23.3906C380.906 23.3802 381.057 23.3698 381.203 23.3594ZM398.641 21.5312C398.526 22.5417 398 23.5677 397.062 24.6094C395.604 26.2656 393.562 27.0938 390.938 27.0938C388.771 27.0938 386.859 26.3958 385.203 25C383.547 23.6042 382.719 21.3333 382.719 18.1875C382.719 15.2396 383.464 12.9792 384.953 11.4062C386.453 9.83333 388.396 9.04688 390.781 9.04688C392.198 9.04688 393.474 9.3125 394.609 9.84375C395.745 10.375 396.682 11.2135 397.422 12.3594C398.089 13.3698 398.521 14.5417 398.719 15.875C398.833 16.6562 398.88 17.7812 398.859 19.25H387.203C387.266 20.9583 387.802 22.1562 388.812 22.8438C389.427 23.2708 390.167 23.4844 391.031 23.4844C391.948 23.4844 392.693 23.224 393.266 22.7031C393.578 22.4219 393.854 22.0312 394.094 21.5312H398.641ZM394.234 16.3125C394.161 15.1354 393.802 14.2448 393.156 13.6406C392.521 13.026 391.729 12.7188 390.781 12.7188C389.75 12.7188 388.948 13.0417 388.375 13.6875C387.812 14.3333 387.458 15.2083 387.312 16.3125H394.234ZM389.094 2.53125H393.094L396.75 7.20312H393.125L391.094 4.57812L389.047 7.20312H385.422L389.094 2.53125ZM409.891 12.7969C408.38 12.7969 407.344 13.4375 406.781 14.7188C406.49 15.3958 406.344 16.2604 406.344 17.3125V26.5312H401.906V9.53125H406.203V12.0156C406.776 11.1406 407.318 10.5104 407.828 10.125C408.745 9.4375 409.906 9.09375 411.312 9.09375C413.073 9.09375 414.51 9.55729 415.625 10.4844C416.75 11.401 417.312 12.9271 417.312 15.0625V26.5312H412.75V16.1719C412.75 15.276 412.63 14.5885 412.391 14.1094C411.953 13.2344 411.12 12.7969 409.891 12.7969ZM439.594 26.9844C438.188 26.9844 437.057 26.7031 436.203 26.1406C435.693 25.8073 435.141 25.224 434.547 24.3906V26.5312H430.188V3.53125H434.625V11.7188C435.188 10.9271 435.807 10.3229 436.484 9.90625C437.286 9.38542 438.307 9.125 439.547 9.125C441.786 9.125 443.536 9.93229 444.797 11.5469C446.068 13.1615 446.703 15.2448 446.703 17.7969C446.703 20.4427 446.078 22.6354 444.828 24.375C443.578 26.1146 441.833 26.9844 439.594 26.9844ZM442.031 18.2656C442.031 17.0573 441.875 16.0573 441.562 15.2656C440.969 13.7656 439.875 13.0156 438.281 13.0156C436.667 13.0156 435.557 13.75 434.953 15.2188C434.641 16 434.484 17.0104 434.484 18.25C434.484 19.7083 434.807 20.9167 435.453 21.875C436.099 22.8333 437.083 23.3125 438.406 23.3125C439.552 23.3125 440.443 22.849 441.078 21.9219C441.714 20.9948 442.031 19.776 442.031 18.2656ZM450.547 11.3438C451.724 9.84375 453.745 9.09375 456.609 9.09375C458.474 9.09375 460.13 9.46354 461.578 10.2031C463.026 10.9427 463.75 12.3385 463.75 14.3906V22.2031C463.75 22.7448 463.76 23.401 463.781 24.1719C463.812 24.7552 463.901 25.151 464.047 25.3594C464.193 25.5677 464.411 25.7396 464.703 25.875V26.5312H459.859C459.724 26.1875 459.63 25.8646 459.578 25.5625C459.526 25.2604 459.484 24.9167 459.453 24.5312C458.839 25.1979 458.13 25.7656 457.328 26.2344C456.37 26.7865 455.286 27.0625 454.078 27.0625C452.536 27.0625 451.26 26.625 450.25 25.75C449.25 24.8646 448.75 23.6146 448.75 22C448.75 19.9062 449.557 18.3906 451.172 17.4531C452.057 16.9427 453.359 16.5781 455.078 16.3594L456.594 16.1719C457.417 16.0677 458.005 15.9375 458.359 15.7812C458.995 15.5104 459.312 15.0885 459.312 14.5156C459.312 13.8177 459.068 13.3385 458.578 13.0781C458.099 12.8073 457.391 12.6719 456.453 12.6719C455.401 12.6719 454.656 12.9323 454.219 13.4531C453.906 13.8385 453.698 14.3594 453.594 15.0156H449.297C449.391 13.526 449.807 12.3021 450.547 11.3438ZM453.859 23.3125C454.276 23.6562 454.786 23.8281 455.391 23.8281C456.349 23.8281 457.229 23.5469 458.031 22.9844C458.844 22.4219 459.266 21.3958 459.297 19.9062V18.25C459.016 18.4271 458.729 18.5729 458.438 18.6875C458.156 18.7917 457.766 18.8906 457.266 18.9844L456.266 19.1719C455.328 19.3385 454.656 19.5417 454.25 19.7812C453.562 20.1875 453.219 20.8177 453.219 21.6719C453.219 22.4323 453.432 22.9792 453.859 23.3125ZM451.516 2.53125H456.469L459.469 7.20312H456.25L451.516 2.53125ZM472.297 9.5V26.5312H467.781V9.5H472.297ZM472.297 3.35938V7.46875H467.781V3.35938H472.297ZM483.859 9.5H488.859L492.406 22.0625L496.031 9.5H500.812L494.672 26.5312H489.969L483.859 9.5ZM507.922 9.5V26.5312H503.406V9.5H507.922ZM507.922 3.35938V7.46875H503.406V3.35938H507.922ZM526.828 21.5312C526.714 22.5417 526.188 23.5677 525.25 24.6094C523.792 26.2656 521.75 27.0938 519.125 27.0938C516.958 27.0938 515.047 26.3958 513.391 25C511.734 23.6042 510.906 21.3333 510.906 18.1875C510.906 15.2396 511.651 12.9792 513.141 11.4062C514.641 9.83333 516.583 9.04688 518.969 9.04688C520.385 9.04688 521.661 9.3125 522.797 9.84375C523.932 10.375 524.87 11.2135 525.609 12.3594C526.276 13.3698 526.708 14.5417 526.906 15.875C527.021 16.6562 527.068 17.7812 527.047 19.25H515.391C515.453 20.9583 515.99 22.1562 517 22.8438C517.615 23.2708 518.354 23.4844 519.219 23.4844C520.135 23.4844 520.88 23.224 521.453 22.7031C521.766 22.4219 522.042 22.0312 522.281 21.5312H526.828ZM522.422 16.3125C522.349 15.1354 521.99 14.2448 521.344 13.6406C520.708 13.026 519.917 12.7188 518.969 12.7188C517.938 12.7188 517.135 13.0417 516.562 13.6875C516 14.3333 515.646 15.2083 515.5 16.3125H522.422ZM516.75 3.15625H520.75L524.406 7.82812H520.781L518.75 5.20312L516.703 7.82812H513.078L516.75 3.15625ZM521.562 4.67188L524.562 0H529.531L524.781 4.67188H521.562ZM538.016 23.3594V26.6875L535.906 26.7656C533.802 26.8385 532.365 26.474 531.594 25.6719C531.094 25.1615 530.844 24.375 530.844 23.3125V12.8281H528.469V9.65625H530.844V4.90625H535.25V9.65625H538.016V12.8281H535.25V21.8281C535.25 22.526 535.339 22.9635 535.516 23.1406C535.693 23.3073 536.234 23.3906 537.141 23.3906C537.276 23.3906 537.417 23.3906 537.562 23.3906C537.719 23.3802 537.87 23.3698 538.016 23.3594Z" fill="#FEFFE6"/>
</svg>
