<svg width="533" height="37" viewBox="0 0 533 32" fill="none" xmlns="http://www.w3.org/2000/svg">
<path d="M18.625 1.23438V3.96875H10.8906V24.1875H7.73438V3.96875H0V1.23438H18.625ZM20 7.45312H22.6719V10.3438C22.8906 9.78125 23.4271 9.09896 24.2812 8.29688C25.1354 7.48438 26.1198 7.07812 27.2344 7.07812C27.2865 7.07812 27.375 7.08333 27.5 7.09375C27.625 7.10417 27.8385 7.125 28.1406 7.15625V10.125C27.974 10.0938 27.8177 10.0729 27.6719 10.0625C27.5365 10.0521 27.3854 10.0469 27.2188 10.0469C25.8021 10.0469 24.7135 10.5052 23.9531 11.4219C23.1927 12.3281 22.8125 13.375 22.8125 14.5625V24.1875H20V7.45312ZM32.7344 19.7344C32.7344 20.5469 33.0312 21.1875 33.625 21.6562C34.2188 22.125 34.9219 22.3594 35.7344 22.3594C36.724 22.3594 37.6823 22.1302 38.6094 21.6719C40.1719 20.9115 40.9531 19.6667 40.9531 17.9375V15.6719C40.6094 15.8906 40.1667 16.0729 39.625 16.2188C39.0833 16.3646 38.5521 16.4688 38.0312 16.5312L36.3281 16.75C35.3073 16.8854 34.5417 17.099 34.0312 17.3906C33.1667 17.8802 32.7344 18.6615 32.7344 19.7344ZM39.5469 14.0469C40.1927 13.9635 40.625 13.6927 40.8438 13.2344C40.9688 12.9844 41.0312 12.625 41.0312 12.1562C41.0312 11.1979 40.6875 10.5052 40 10.0781C39.3229 9.64062 38.349 9.42188 37.0781 9.42188C35.6094 9.42188 34.5677 9.81771 33.9531 10.6094C33.6094 11.0469 33.3854 11.6979 33.2812 12.5625H30.6562C30.7083 10.5 31.375 9.06771 32.6562 8.26562C33.9479 7.45312 35.4427 7.04688 37.1406 7.04688C39.1094 7.04688 40.7083 7.42188 41.9375 8.17188C43.1562 8.92188 43.7656 10.0885 43.7656 11.6719V21.3125C43.7656 21.6042 43.8229 21.8385 43.9375 22.0156C44.0625 22.1927 44.3177 22.2812 44.7031 22.2812C44.8281 22.2812 44.9688 22.276 45.125 22.2656C45.2812 22.2448 45.4479 22.2188 45.625 22.1875V24.2656C45.1875 24.3906 44.8542 24.4688 44.625 24.5C44.3958 24.5312 44.0833 24.5469 43.6875 24.5469C42.7188 24.5469 42.0156 24.2031 41.5781 23.5156C41.349 23.151 41.1875 22.6354 41.0938 21.9688C40.5208 22.7188 39.6979 23.3698 38.625 23.9219C37.5521 24.474 36.3698 24.75 35.0781 24.75C33.526 24.75 32.2552 24.2812 31.2656 23.3438C30.2865 22.3958 29.7969 21.2135 29.7969 19.7969C29.7969 18.2448 30.2812 17.0417 31.25 16.1875C32.2188 15.3333 33.4896 14.8073 35.0625 14.6094L39.5469 14.0469ZM48.3906 7.45312H51.0625V9.82812C51.8542 8.84896 52.6927 8.14583 53.5781 7.71875C54.4635 7.29167 55.4479 7.07812 56.5312 7.07812C58.9062 7.07812 60.5104 7.90625 61.3438 9.5625C61.8021 10.4688 62.0312 11.7656 62.0312 13.4531V24.1875H59.1719V13.6406C59.1719 12.6198 59.0208 11.7969 58.7188 11.1719C58.2188 10.1302 57.3125 9.60938 56 9.60938C55.3333 9.60938 54.7865 9.67708 54.3594 9.8125C53.5885 10.0417 52.9115 10.5 52.3281 11.1875C51.8594 11.7396 51.5521 12.3125 51.4062 12.9062C51.2708 13.4896 51.2031 14.3281 51.2031 15.4219V24.1875H48.3906V7.45312ZM72.1094 7.15625C73.4219 7.15625 74.5677 7.47917 75.5469 8.125C76.0781 8.48958 76.6198 9.02083 77.1719 9.71875V7.60938H79.7656V22.8281C79.7656 24.9531 79.4531 26.6302 78.8281 27.8594C77.6615 30.1302 75.4583 31.2656 72.2188 31.2656C70.4167 31.2656 68.901 30.8594 67.6719 30.0469C66.4427 29.2448 65.7552 27.9844 65.6094 26.2656H68.4688C68.6042 27.0156 68.875 27.5938 69.2812 28C69.9167 28.625 70.9167 28.9375 72.2812 28.9375C74.4375 28.9375 75.849 28.1771 76.5156 26.6562C76.9115 25.7604 77.0938 24.1615 77.0625 21.8594C76.5 22.7135 75.8229 23.349 75.0312 23.7656C74.2396 24.1823 73.1927 24.3906 71.8906 24.3906C70.0781 24.3906 68.4896 23.75 67.125 22.4688C65.7708 21.1771 65.0938 19.0469 65.0938 16.0781C65.0938 13.276 65.776 11.0885 67.1406 9.51562C68.5156 7.94271 70.1719 7.15625 72.1094 7.15625ZM77.1719 15.75C77.1719 13.6771 76.7448 12.1406 75.8906 11.1406C75.0365 10.1406 73.9479 9.64062 72.625 9.64062C70.6458 9.64062 69.2917 10.5677 68.5625 12.4219C68.1771 13.4115 67.9844 14.7083 67.9844 16.3125C67.9844 18.1979 68.3646 19.6354 69.125 20.625C69.8958 21.6042 70.9271 22.0938 72.2188 22.0938C74.2396 22.0938 75.6615 21.1823 76.4844 19.3594C76.9427 18.3281 77.1719 17.125 77.1719 15.75ZM108.281 6.96875C110.167 6.96875 111.698 7.42708 112.875 8.34375C114.062 9.26042 114.776 10.8385 115.016 13.0781H112.281C112.115 12.0469 111.734 11.1927 111.141 10.5156C110.547 9.82812 109.594 9.48438 108.281 9.48438C106.49 9.48438 105.208 10.3594 104.438 12.1094C103.938 13.2448 103.688 14.6458 103.688 16.3125C103.688 17.9896 104.042 19.401 104.75 20.5469C105.458 21.6927 106.573 22.2656 108.094 22.2656C109.26 22.2656 110.182 21.9115 110.859 21.2031C111.547 20.4844 112.021 19.5052 112.281 18.2656H115.016C114.703 20.4844 113.922 22.1094 112.672 23.1406C111.422 24.1615 109.823 24.6719 107.875 24.6719C105.688 24.6719 103.943 23.875 102.641 22.2812C101.339 20.6771 100.688 18.6771 100.688 16.2812C100.688 13.3438 101.401 11.0573 102.828 9.42188C104.255 7.78646 106.073 6.96875 108.281 6.96875ZM117.828 1.15625H120.641V9.71875C121.307 8.875 121.906 8.28125 122.438 7.9375C123.344 7.34375 124.474 7.04688 125.828 7.04688C128.255 7.04688 129.901 7.89583 130.766 9.59375C131.234 10.5208 131.469 11.8073 131.469 13.4531V24.1875H128.578V13.6406C128.578 12.4115 128.422 11.5104 128.109 10.9375C127.599 10.0208 126.641 9.5625 125.234 9.5625C124.068 9.5625 123.01 9.96354 122.062 10.7656C121.115 11.5677 120.641 13.0833 120.641 15.3125V24.1875H117.828V1.15625ZM138.453 7.45312V18.5625C138.453 19.4167 138.589 20.1146 138.859 20.6562C139.359 21.6562 140.292 22.1562 141.656 22.1562C143.615 22.1562 144.948 21.2812 145.656 19.5312C146.042 18.5938 146.234 17.3073 146.234 15.6719V7.45312H149.047V24.1875H146.391L146.422 21.7188C146.057 22.3542 145.604 22.8906 145.062 23.3281C143.99 24.2031 142.688 24.6406 141.156 24.6406C138.771 24.6406 137.146 23.8438 136.281 22.25C135.812 21.3958 135.578 20.2552 135.578 18.8281V7.45312H138.453ZM142.484 1.54688C142.328 1.44271 142.167 1.36979 142 1.32812C141.844 1.27604 141.646 1.25 141.406 1.25C141.156 1.25 140.818 1.28125 140.391 1.34375L140.328 0.109375C140.557 0.078125 140.781 0.0520833 141 0.03125C141.229 0.0104167 141.448 0 141.656 0C142.188 0 142.677 0.0885417 143.125 0.265625C143.573 0.432292 143.969 0.760417 144.312 1.25C144.406 1.38542 144.484 1.5625 144.547 1.78125C144.62 2 144.656 2.23438 144.656 2.48438C144.656 2.69271 144.625 2.90625 144.562 3.125C144.5 3.34375 144.391 3.55208 144.234 3.75C144.078 3.9375 143.865 4.10417 143.594 4.25C143.333 4.39583 143.005 4.51042 142.609 4.59375L142.547 5.28125H141.172V4.09375C141.797 4.03125 142.276 3.84896 142.609 3.54688C142.953 3.23438 143.125 2.90104 143.125 2.54688C143.125 2.35938 143.073 2.18229 142.969 2.01562C142.865 1.83854 142.703 1.68229 142.484 1.54688ZM167.578 1.23438H169.953L162.672 24.1875H160.297L167.578 1.23438ZM180.547 1.23438H183.578V12.4219L194.766 1.23438H199.062L189.516 10.4844L199.328 24.1875H195.281L187.25 12.6719L183.578 16.1875V24.1875H180.547V1.23438ZM201.516 1.15625H204.328V9.71875C204.995 8.875 205.594 8.28125 206.125 7.9375C207.031 7.34375 208.161 7.04688 209.516 7.04688C211.943 7.04688 213.589 7.89583 214.453 9.59375C214.922 10.5208 215.156 11.8073 215.156 13.4531V24.1875H212.266V13.6406C212.266 12.4115 212.109 11.5104 211.797 10.9375C211.286 10.0208 210.328 9.5625 208.922 9.5625C207.755 9.5625 206.698 9.96354 205.75 10.7656C204.802 11.5677 204.328 13.0833 204.328 15.3125V24.1875H201.516V1.15625ZM225.969 22.375C227.833 22.375 229.109 21.6719 229.797 20.2656C230.495 18.849 230.844 17.276 230.844 15.5469C230.844 13.9844 230.594 12.7135 230.094 11.7344C229.302 10.1927 227.938 9.42188 226 9.42188C224.281 9.42188 223.031 10.0781 222.25 11.3906C221.469 12.7031 221.078 14.2865 221.078 16.1406C221.078 17.9219 221.469 19.4062 222.25 20.5938C223.031 21.7812 224.271 22.375 225.969 22.375ZM226.078 6.96875C228.234 6.96875 230.057 7.6875 231.547 9.125C233.036 10.5625 233.781 12.6771 233.781 15.4688C233.781 18.1667 233.125 20.3958 231.812 22.1562C230.5 23.9167 228.464 24.7969 225.703 24.7969C223.401 24.7969 221.573 24.0208 220.219 22.4688C218.865 20.9062 218.188 18.8125 218.188 16.1875C218.188 13.375 218.901 11.1354 220.328 9.46875C221.755 7.80208 223.672 6.96875 226.078 6.96875ZM239.297 19.7344C239.297 20.5469 239.594 21.1875 240.188 21.6562C240.781 22.125 241.484 22.3594 242.297 22.3594C243.286 22.3594 244.245 22.1302 245.172 21.6719C246.734 20.9115 247.516 19.6667 247.516 17.9375V15.6719C247.172 15.8906 246.729 16.0729 246.188 16.2188C245.646 16.3646 245.115 16.4688 244.594 16.5312L242.891 16.75C241.87 16.8854 241.104 17.099 240.594 17.3906C239.729 17.8802 239.297 18.6615 239.297 19.7344ZM246.109 14.0469C246.755 13.9635 247.188 13.6927 247.406 13.2344C247.531 12.9844 247.594 12.625 247.594 12.1562C247.594 11.1979 247.25 10.5052 246.562 10.0781C245.885 9.64062 244.911 9.42188 243.641 9.42188C242.172 9.42188 241.13 9.81771 240.516 10.6094C240.172 11.0469 239.948 11.6979 239.844 12.5625H237.219C237.271 10.5 237.938 9.06771 239.219 8.26562C240.51 7.45312 242.005 7.04688 243.703 7.04688C245.672 7.04688 247.271 7.42188 248.5 8.17188C249.719 8.92188 250.328 10.0885 250.328 11.6719V21.3125C250.328 21.6042 250.385 21.8385 250.5 22.0156C250.625 22.1927 250.88 22.2812 251.266 22.2812C251.391 22.2812 251.531 22.276 251.688 22.2656C251.844 22.2448 252.01 22.2188 252.188 22.1875V24.2656C251.75 24.3906 251.417 24.4688 251.188 24.5C250.958 24.5312 250.646 24.5469 250.25 24.5469C249.281 24.5469 248.578 24.2031 248.141 23.5156C247.911 23.151 247.75 22.6354 247.656 21.9688C247.083 22.7188 246.26 23.3698 245.188 23.9219C244.115 24.474 242.932 24.75 241.641 24.75C240.089 24.75 238.818 24.2812 237.828 23.3438C236.849 22.3958 236.359 21.2135 236.359 19.7969C236.359 18.2448 236.844 17.0417 237.812 16.1875C238.781 15.3333 240.052 14.8073 241.625 14.6094L246.109 14.0469ZM247.297 0.71875L243.125 5.23438H240.969L243.828 0.71875H247.297ZM263.859 1.15625H266.672V9.71875C267.339 8.875 267.938 8.28125 268.469 7.9375C269.375 7.34375 270.505 7.04688 271.859 7.04688C274.286 7.04688 275.932 7.89583 276.797 9.59375C277.266 10.5208 277.5 11.8073 277.5 13.4531V24.1875H274.609V13.6406C274.609 12.4115 274.453 11.5104 274.141 10.9375C273.63 10.0208 272.672 9.5625 271.266 9.5625C270.099 9.5625 269.042 9.96354 268.094 10.7656C267.146 11.5677 266.672 13.0833 266.672 15.3125V24.1875H263.859V1.15625ZM288.312 22.375C290.177 22.375 291.453 21.6719 292.141 20.2656C292.839 18.849 293.188 17.276 293.188 15.5469C293.188 13.9844 292.938 12.7135 292.438 11.7344C291.646 10.1927 290.281 9.42188 288.344 9.42188C286.625 9.42188 285.375 10.0781 284.594 11.3906C283.812 12.7031 283.422 14.2865 283.422 16.1406C283.422 17.9219 283.812 19.4062 284.594 20.5938C285.375 21.7812 286.615 22.375 288.312 22.375ZM288.422 6.96875C290.578 6.96875 292.401 7.6875 293.891 9.125C295.38 10.5625 296.125 12.6771 296.125 15.4688C296.125 18.1667 295.469 20.3958 294.156 22.1562C292.844 23.9167 290.807 24.7969 288.047 24.7969C285.745 24.7969 283.917 24.0208 282.562 22.4688C281.208 20.9062 280.531 18.8125 280.531 16.1875C280.531 13.375 281.245 11.1354 282.672 9.46875C284.099 7.80208 286.016 6.96875 288.422 6.96875ZM287.25 26.2188H290.172V29.4688H287.25V26.2188ZM305.938 6.96875C307.823 6.96875 309.354 7.42708 310.531 8.34375C311.719 9.26042 312.432 10.8385 312.672 13.0781H309.938C309.771 12.0469 309.391 11.1927 308.797 10.5156C308.203 9.82812 307.25 9.48438 305.938 9.48438C304.146 9.48438 302.865 10.3594 302.094 12.1094C301.594 13.2448 301.344 14.6458 301.344 16.3125C301.344 17.9896 301.698 19.401 302.406 20.5469C303.115 21.6927 304.229 22.2656 305.75 22.2656C306.917 22.2656 307.839 21.9115 308.516 21.2031C309.203 20.4844 309.677 19.5052 309.938 18.2656H312.672C312.359 20.4844 311.578 22.1094 310.328 23.1406C309.078 24.1615 307.479 24.6719 305.531 24.6719C303.344 24.6719 301.599 23.875 300.297 22.2812C298.995 20.6771 298.344 18.6771 298.344 16.2812C298.344 13.3438 299.057 11.0573 300.484 9.42188C301.911 7.78646 303.729 6.96875 305.938 6.96875ZM329.609 1.23438H331.984L324.703 24.1875H322.328L329.609 1.23438ZM358.828 22.4688C357.109 24.0417 354.911 24.8281 352.234 24.8281C348.922 24.8281 346.318 23.7656 344.422 21.6406C342.526 19.5052 341.578 16.5781 341.578 12.8594C341.578 8.83854 342.656 5.73958 344.812 3.5625C346.688 1.66667 349.073 0.71875 351.969 0.71875C355.844 0.71875 358.677 1.98958 360.469 4.53125C361.458 5.95833 361.99 7.39062 362.062 8.82812H357.25C356.938 7.72396 356.536 6.89062 356.047 6.32812C355.172 5.32812 353.875 4.82812 352.156 4.82812C350.406 4.82812 349.026 5.53646 348.016 6.95312C347.005 8.35938 346.5 10.3542 346.5 12.9375C346.5 15.5208 347.031 17.4583 348.094 18.75C349.167 20.0312 350.526 20.6719 352.172 20.6719C353.859 20.6719 355.146 20.1198 356.031 19.0156C356.521 18.4219 356.927 17.5312 357.25 16.3438H362.016C361.599 18.8542 360.536 20.8958 358.828 22.4688ZM379.547 9.3125C380.984 11.1146 381.703 13.2448 381.703 15.7031C381.703 18.2031 380.984 20.3438 379.547 22.125C378.109 23.8958 375.927 24.7812 373 24.7812C370.073 24.7812 367.891 23.8958 366.453 22.125C365.016 20.3438 364.297 18.2031 364.297 15.7031C364.297 13.2448 365.016 11.1146 366.453 9.3125C367.891 7.51042 370.073 6.60938 373 6.60938C375.927 6.60938 378.109 7.51042 379.547 9.3125ZM372.984 10.375C371.682 10.375 370.677 10.8385 369.969 11.7656C369.271 12.6823 368.922 13.9948 368.922 15.7031C368.922 17.4115 369.271 18.7292 369.969 19.6562C370.677 20.5833 371.682 21.0469 372.984 21.0469C374.286 21.0469 375.286 20.5833 375.984 19.6562C376.682 18.7292 377.031 17.4115 377.031 15.7031C377.031 13.9948 376.682 12.6823 375.984 11.7656C375.286 10.8385 374.286 10.375 372.984 10.375ZM385 1.15625H389.453V24.1875H385V1.15625ZM393.906 1.15625H398.359V24.1875H393.906V1.15625ZM417.297 19.1875C417.182 20.1979 416.656 21.224 415.719 22.2656C414.26 23.9219 412.219 24.75 409.594 24.75C407.427 24.75 405.516 24.0521 403.859 22.6562C402.203 21.2604 401.375 18.9896 401.375 15.8438C401.375 12.8958 402.12 10.6354 403.609 9.0625C405.109 7.48958 407.052 6.70312 409.438 6.70312C410.854 6.70312 412.13 6.96875 413.266 7.5C414.401 8.03125 415.339 8.86979 416.078 10.0156C416.745 11.026 417.177 12.1979 417.375 13.5312C417.49 14.3125 417.536 15.4375 417.516 16.9062H405.859C405.922 18.6146 406.458 19.8125 407.469 20.5C408.083 20.9271 408.823 21.1406 409.688 21.1406C410.604 21.1406 411.349 20.8802 411.922 20.3594C412.234 20.0781 412.51 19.6875 412.75 19.1875H417.297ZM412.891 13.9688C412.818 12.7917 412.458 11.901 411.812 11.2969C411.177 10.6823 410.385 10.375 409.438 10.375C408.406 10.375 407.604 10.6979 407.031 11.3438C406.469 11.9896 406.115 12.8646 405.969 13.9688H412.891ZM425.344 27.1719C425.823 27.5781 426.63 27.7812 427.766 27.7812C429.37 27.7812 430.443 27.2448 430.984 26.1719C431.339 25.4844 431.516 24.3281 431.516 22.7031V21.6094C431.089 22.3385 430.63 22.8854 430.141 23.25C429.255 23.9271 428.104 24.2656 426.688 24.2656C424.5 24.2656 422.75 23.5 421.438 21.9688C420.135 20.4271 419.484 18.3438 419.484 15.7188C419.484 13.1875 420.115 11.0625 421.375 9.34375C422.635 7.61458 424.422 6.75 426.734 6.75C427.589 6.75 428.333 6.88021 428.969 7.14062C430.052 7.58854 430.927 8.41146 431.594 9.60938V7.15625H435.922V23.3125C435.922 25.5104 435.552 27.1667 434.812 28.2812C433.542 30.1979 431.104 31.1562 427.5 31.1562C425.323 31.1562 423.547 30.7292 422.172 29.875C420.797 29.0208 420.036 27.7448 419.891 26.0469H424.734C424.859 26.5677 425.062 26.9427 425.344 27.1719ZM424.594 18.375C425.198 19.8125 426.281 20.5312 427.844 20.5312C428.885 20.5312 429.766 20.1406 430.484 19.3594C431.203 18.5677 431.562 17.3125 431.562 15.5938C431.562 13.9792 431.219 12.75 430.531 11.9062C429.854 11.0625 428.943 10.6406 427.797 10.6406C426.234 10.6406 425.156 11.375 424.562 12.8438C424.25 13.625 424.094 14.5885 424.094 15.7344C424.094 16.724 424.26 17.6042 424.594 18.375ZM454.672 19.1875C454.557 20.1979 454.031 21.224 453.094 22.2656C451.635 23.9219 449.594 24.75 446.969 24.75C444.802 24.75 442.891 24.0521 441.234 22.6562C439.578 21.2604 438.75 18.9896 438.75 15.8438C438.75 12.8958 439.495 10.6354 440.984 9.0625C442.484 7.48958 444.427 6.70312 446.812 6.70312C448.229 6.70312 449.505 6.96875 450.641 7.5C451.776 8.03125 452.714 8.86979 453.453 10.0156C454.12 11.026 454.552 12.1979 454.75 13.5312C454.865 14.3125 454.911 15.4375 454.891 16.9062H443.234C443.297 18.6146 443.833 19.8125 444.844 20.5C445.458 20.9271 446.198 21.1406 447.062 21.1406C447.979 21.1406 448.724 20.8802 449.297 20.3594C449.609 20.0781 449.885 19.6875 450.125 19.1875H454.672ZM450.266 13.9688C450.193 12.7917 449.833 11.901 449.188 11.2969C448.552 10.6823 447.76 10.375 446.812 10.375C445.781 10.375 444.979 10.6979 444.406 11.3438C443.844 11.9896 443.49 12.8646 443.344 13.9688H450.266ZM481.078 8.98438C482.453 10.4531 483.141 12.6094 483.141 15.4531C483.141 18.4531 482.464 20.7396 481.109 22.3125C479.766 23.8854 478.031 24.6719 475.906 24.6719C474.552 24.6719 473.427 24.3333 472.531 23.6562C472.042 23.2812 471.562 22.7344 471.094 22.0156V30.8906H466.688V7.15625H470.953V9.67188C471.432 8.93229 471.943 8.34896 472.484 7.92188C473.474 7.16146 474.651 6.78125 476.016 6.78125C478.005 6.78125 479.693 7.51562 481.078 8.98438ZM478.547 15.6719C478.547 14.3594 478.245 13.1979 477.641 12.1875C477.047 11.1771 476.078 10.6719 474.734 10.6719C473.12 10.6719 472.01 11.4375 471.406 12.9688C471.094 13.7812 470.938 14.8125 470.938 16.0625C470.938 18.0417 471.464 19.4323 472.516 20.2344C473.141 20.7031 473.88 20.9375 474.734 20.9375C475.974 20.9375 476.917 20.4583 477.562 19.5C478.219 18.5417 478.547 17.2656 478.547 15.6719ZM494.938 11.2656C493.146 11.2656 491.943 11.849 491.328 13.0156C490.984 13.6719 490.812 14.6823 490.812 16.0469V24.1875H486.328V7.15625H490.578V10.125C491.266 8.98958 491.865 8.21354 492.375 7.79688C493.208 7.09896 494.292 6.75 495.625 6.75C495.708 6.75 495.776 6.75521 495.828 6.76562C495.891 6.76562 496.021 6.77083 496.219 6.78125V11.3438C495.938 11.3125 495.688 11.2917 495.469 11.2812C495.25 11.2708 495.073 11.2656 494.938 11.2656ZM513.422 19.1875C513.307 20.1979 512.781 21.224 511.844 22.2656C510.385 23.9219 508.344 24.75 505.719 24.75C503.552 24.75 501.641 24.0521 499.984 22.6562C498.328 21.2604 497.5 18.9896 497.5 15.8438C497.5 12.8958 498.245 10.6354 499.734 9.0625C501.234 7.48958 503.177 6.70312 505.562 6.70312C506.979 6.70312 508.255 6.96875 509.391 7.5C510.526 8.03125 511.464 8.86979 512.203 10.0156C512.87 11.026 513.302 12.1979 513.5 13.5312C513.615 14.3125 513.661 15.4375 513.641 16.9062H501.984C502.047 18.6146 502.583 19.8125 503.594 20.5C504.208 20.9271 504.948 21.1406 505.812 21.1406C506.729 21.1406 507.474 20.8802 508.047 20.3594C508.359 20.0781 508.635 19.6875 508.875 19.1875H513.422ZM509.016 13.9688C508.943 12.7917 508.583 11.901 507.938 11.2969C507.302 10.6823 506.51 10.375 505.562 10.375C504.531 10.375 503.729 10.6979 503.156 11.3438C502.594 11.9896 502.24 12.8646 502.094 13.9688H509.016ZM530.922 8.98438C532.297 10.4531 532.984 12.6094 532.984 15.4531C532.984 18.4531 532.307 20.7396 530.953 22.3125C529.609 23.8854 527.875 24.6719 525.75 24.6719C524.396 24.6719 523.271 24.3333 522.375 23.6562C521.885 23.2812 521.406 22.7344 520.938 22.0156V30.8906H516.531V7.15625H520.797V9.67188C521.276 8.93229 521.786 8.34896 522.328 7.92188C523.318 7.16146 524.495 6.78125 525.859 6.78125C527.849 6.78125 529.536 7.51562 530.922 8.98438ZM528.391 15.6719C528.391 14.3594 528.089 13.1979 527.484 12.1875C526.891 11.1771 525.922 10.6719 524.578 10.6719C522.964 10.6719 521.854 11.4375 521.25 12.9688C520.938 13.7812 520.781 14.8125 520.781 16.0625C520.781 18.0417 521.307 19.4323 522.359 20.2344C522.984 20.7031 523.724 20.9375 524.578 20.9375C525.818 20.9375 526.76 20.4583 527.406 19.5C528.062 18.5417 528.391 17.2656 528.391 15.6719Z" fill="#F9FFE6"/>
</svg>
