<svg width="126" height="84" viewBox="0 0 126 84" fill="none" xmlns="http://www.w3.org/2000/svg">
<path d="M0.631263 72.723C1.04158 73.1304 1.59394 73.3654 2.17786 73.3654H37.2129C36.8026 75.6688 36.5185 78.1446 36.487 80.8397C36.487 81.4194 36.7079 81.9835 37.1182 82.3909C37.5286 82.7983 38.0809 83.0334 38.6648 83.0334H86.9406C88.1243 83.0334 89.0869 82.0932 89.1185 80.9337C89.1185 80.636 89.2132 77.5648 88.5661 73.3654H123.822C125.006 73.3654 125.968 72.4253 126 71.2658C126.032 70.5293 126.473 52.9641 115.395 42.8888C114.606 42.1836 113.438 42.121 112.586 42.7634C112.459 42.8574 99.5659 52.4783 87.5561 42.7634C86.7355 42.1053 85.5519 42.121 84.747 42.8104C84.4945 43.0298 80.9594 46.148 77.8978 52.1649C77.1876 51.8672 76.3512 51.9456 75.7042 52.4313C75.1834 52.823 62.6212 62.0992 50.6746 52.4313C50.0907 51.9612 49.3174 51.8359 48.6388 52.0553C47.0922 48.7647 44.9617 45.5525 42.0105 42.8731C41.2372 42.168 40.0536 42.1053 39.2014 42.7477C39.0752 42.8417 26.1816 52.4627 14.1718 42.7477C13.3512 42.0896 12.1676 42.1053 11.3627 42.7947C10.9366 43.2021 0.268287 52.6194 0 71.1717C0 71.7515 0.220942 72.3156 0.631263 72.723ZM86.4041 47.3231C97.8141 55.2204 109.445 49.7362 113.627 47.2448C120.113 54.1549 121.36 64.6063 121.581 69.0251H87.6824C86.5777 64.6063 84.6207 59.6392 81.1961 55.4241C83.011 51.4912 85.0942 48.7804 86.3883 47.3231H86.4041ZM49.5225 57.0067C60.9326 64.904 72.5794 59.4198 76.7457 56.9284C83.232 63.8385 84.4787 74.2899 84.6996 78.7086H40.9216C41.6949 67.0664 47.0764 59.7645 49.5225 57.0067ZM13.0514 47.3231C24.4614 55.2204 36.0924 49.7362 40.2746 47.2448C42.5155 49.6265 44.1095 52.4313 45.2773 55.2675C43.1152 57.9312 40.0852 62.5066 38.2072 69.0251H4.4504C5.2237 57.3828 10.6052 50.0809 13.0514 47.3231Z" fill="#004DEE"/>
<path d="M26.3237 41.0221C31.8314 41.0221 37.0078 38.8911 40.9058 35.0051C41.4424 34.4723 41.9474 33.9083 42.4209 33.3285C43.9359 43.1531 52.4895 50.69 62.7949 50.69C68.3026 50.69 73.479 48.559 77.377 44.673C80.628 41.4452 82.6481 37.3241 83.232 32.8741C87.0038 37.8099 92.9534 41.0064 99.6606 41.0064C105.168 41.0064 110.345 38.8754 114.243 34.9894C118.141 31.1191 120.303 25.9639 120.287 20.4954C120.287 9.19785 111.023 0 99.6448 0C94.137 0 88.9449 2.13102 85.0469 6.01699C81.7959 9.24486 79.7758 13.3659 79.1919 17.8159C75.4201 12.8801 69.4705 9.68359 62.7633 9.68359C57.2555 9.68359 52.0792 11.8146 48.1654 15.7006C47.6288 16.2333 47.1238 16.7974 46.6503 17.3772C45.1195 7.55258 36.5817 0 26.2763 0C20.7686 0 15.5764 2.13102 11.6784 6.01699C7.78033 9.88729 5.63403 15.0425 5.63403 20.511C5.63403 31.8086 14.8978 40.9907 26.2763 40.9907L26.3237 41.0221ZM88.1716 9.10383C91.249 6.04833 95.3364 4.35605 99.6764 4.35605C108.656 4.35605 115.947 11.6109 115.963 20.511C115.963 24.8201 114.259 28.8784 111.181 31.9339C108.104 34.9894 104.016 36.6817 99.6764 36.6817C90.6967 36.6817 83.3898 29.4425 83.3898 20.5267C83.3898 16.2177 85.0784 12.1593 88.1558 9.10383H88.1716ZM51.2901 18.7718C54.3675 15.7163 58.4549 14.024 62.7949 14.024C71.7746 14.024 79.0814 21.2788 79.0814 30.179C79.0814 34.488 77.3928 38.5463 74.2996 41.6019C71.2222 44.6574 67.1348 46.3496 62.7949 46.3496C53.8152 46.3496 46.5241 39.0948 46.5083 30.1946C46.5083 25.8856 48.1969 21.8273 51.2743 18.7718H51.2901ZM14.8189 9.10383C17.8963 6.04833 21.9837 4.35605 26.3237 4.35605C35.3034 4.35605 42.5945 11.6109 42.6102 20.511C42.6102 24.8201 40.9216 28.8784 37.8284 31.9339C34.751 34.9894 30.6636 36.6817 26.3237 36.6817C17.344 36.6817 10.0371 29.4425 10.0371 20.5267C10.0371 16.2177 11.7257 12.1593 14.8031 9.10383H14.8189Z" fill="#004DEE"/>
</svg>
