<svg width="150" height="77" viewBox="0 0 150 77" fill="none" xmlns="http://www.w3.org/2000/svg">
<path d="M121.74 0H4.09998C1.82998 0 0 1.83998 0 4.09998V72.7999C0 75.0599 1.83998 76.9 4.09998 76.9H145.88C148.15 76.9 149.98 75.0599 149.98 72.7999V4.09998C149.98 1.82998 148.14 0 145.88 0H121.74ZM145.88 72.8099H4.09998V4.10999H145.88V72.8099Z" fill="#004DEE"/>
<path d="M100.97 11.201H87.09C86.52 10.871 85.93 10.5609 85.33 10.2809C78.74 7.14094 71.22 7.15094 64.64 10.2809C64.04 10.5709 63.46 10.881 62.88 11.201H24.86C24.86 19.321 18.2799 25.9109 10.1499 25.9109V51.011C18.2799 51.011 24.86 57.591 24.86 65.721H62.88C63.45 66.051 64.04 66.361 64.64 66.641C67.94 68.211 71.42 69.001 74.98 69.001C78.54 69.001 82.0299 68.211 85.3199 66.641C85.9199 66.361 86.51 66.041 87.08 65.721H125.1C125.1 57.601 131.68 51.011 139.81 51.011V25.9109C131.68 25.9109 125.1 19.321 125.1 11.201H100.96H100.97ZM49.01 61.611H28.5199C26.9399 54.521 21.35 48.931 14.26 47.351V29.561C21.34 27.981 26.9399 22.391 28.5199 15.301H57.5C51.67 21.001 48.1599 29.371 48.1599 38.461C48.1599 47.551 51.67 55.921 57.5 61.611H49.01ZM84.45 64.7909C78.42 67.6609 71.5699 67.6609 65.5299 64.7909C56.2299 60.3609 50.22 50.031 50.22 38.461C50.22 26.891 56.2299 16.561 65.5299 12.131C68.5399 10.701 71.73 9.971 75 9.971C78.27 9.971 81.45 10.701 84.46 12.131C93.76 16.561 99.7699 26.901 99.7699 38.461C99.7699 50.021 93.7599 60.3609 84.45 64.7909ZM135.72 29.561V47.351C128.63 48.931 123.04 54.521 121.46 61.611H92.48C98.31 55.911 101.82 47.541 101.82 38.461C101.82 29.381 98.31 21.001 92.48 15.301H121.46C123.04 22.391 128.63 27.981 135.72 29.561Z" fill="#004DEE"/>
<path d="M82.7 37.0706C81.38 35.9806 79.7301 35.0506 77.5101 34.1406C75.4701 33.3006 74.1601 32.6106 73.4901 32.0206C73.1401 31.7206 73.02 31.5106 72.95 31.3606C72.88 31.2106 72.81 31.0106 72.81 30.6006C72.81 30.3206 72.88 29.7806 73.32 29.3406C73.83 28.8506 74.66 28.6006 75.79 28.6006C76.93 28.6006 77.96 28.7606 78.96 29.1006C79.74 29.3606 80.3401 29.6806 80.8601 29.9706L82.06 30.6605C82.32 30.8105 82.63 30.8406 82.92 30.7306C83.2 30.6306 83.43 30.4106 83.53 30.1306L85.6 24.6705C85.78 24.2005 85.6 23.6705 85.16 23.4205L84.3 22.9205C82.74 22.0005 80.96 21.3906 79.02 21.0906V17.1705C79.02 16.6005 78.5601 16.1406 77.9901 16.1406H72.59C72.02 16.1406 71.57 16.6005 71.57 17.1705V21.5605C69.67 22.1505 68.03 23.1506 66.78 24.4806C65.1 26.2706 64.17 28.6505 64.17 31.1805C64.17 32.5305 64.42 33.7805 64.92 34.9205C65.61 36.4805 66.79 37.8705 68.43 39.0405C69.76 39.9905 71.42 40.8306 73.65 41.7106C75.63 42.5106 76.58 43.2105 77.03 43.6705C77.3 43.9505 77.4901 44.2106 77.6201 44.5006C77.7401 44.7906 77.8 45.1106 77.8 45.4806C77.8 46.2106 77.5301 46.7806 76.9801 47.2406C76.3301 47.7806 75.33 48.0806 74.17 48.0806H74.15C72.14 48.0806 69.97 47.4306 68.34 46.3406L67.08 45.5006C66.82 45.3306 66.49 45.2806 66.19 45.3806C65.89 45.4806 65.65 45.7106 65.55 46.0106L63.56 51.5605C63.41 51.9905 63.56 52.4806 63.93 52.7406L64.66 53.2606C65.73 54.0206 67.08 54.6406 68.65 55.1006C69.49 55.3506 70.3601 55.5306 71.2301 55.6506V59.7506C71.2301 60.3106 71.6901 60.7706 72.2501 60.7706H77.7C78.27 60.7706 78.72 60.3106 78.72 59.7506V55.2106C80.81 54.5606 82.6 53.4306 83.94 51.9006C85.57 50.0406 86.46 47.6406 86.46 45.1406C86.46 43.8006 86.26 42.5606 85.85 41.4506C85.25 39.7806 84.18 38.3106 82.68 37.0706H82.7ZM82.41 50.5505C81.19 51.9505 79.48 52.9406 77.47 53.4406C77.01 53.5506 76.69 53.9606 76.69 54.4406V58.7306H73.29V54.7506C73.29 54.2206 72.8801 53.7706 72.3601 53.7306C71.3101 53.6406 70.2601 53.4406 69.2401 53.1406C67.8801 52.7506 66.7501 52.2306 65.8701 51.6006L65.78 51.5305L67.06 47.9506L67.22 48.0605C69.17 49.3705 71.77 50.1506 74.17 50.1506H74.19C75.83 50.1506 77.29 49.6806 78.32 48.8306C79.33 47.9706 79.8501 46.8606 79.8601 45.5006C79.8601 44.8506 79.7501 44.2706 79.5101 43.7206C79.2801 43.1806 78.9501 42.7006 78.4901 42.2506C77.6401 41.3906 76.27 40.5806 74.41 39.8306C72.33 39.0106 70.8101 38.2406 69.6201 37.4006C68.2601 36.4306 67.34 35.3606 66.8 34.1206C66.42 33.2506 66.2301 32.2706 66.2301 31.2106C66.2301 29.2006 66.96 27.3205 68.28 25.9105C69.42 24.6905 71 23.8106 72.85 23.3606C73.31 23.2506 73.6301 22.8406 73.6301 22.3606V18.2106H76.9801V22.0106C76.9801 22.5406 77.38 22.9805 77.91 23.0305C79.92 23.2205 81.72 23.7806 83.28 24.7006L83.3901 24.7706L82.05 28.3005L81.8901 28.2106C81.2701 27.8606 80.5701 27.4905 79.6201 27.1705C78.4101 26.7605 77.16 26.5706 75.79 26.5706C74.1 26.5706 72.7901 27.0206 71.8901 27.9006C71.1601 28.6106 70.7601 29.5806 70.7601 30.6306C70.7601 31.2606 70.87 31.7806 71.09 32.2606C71.32 32.7406 71.6501 33.1606 72.1301 33.5906C72.9901 34.3506 74.4101 35.1106 76.7301 36.0706C78.7501 36.9006 80.2301 37.7306 81.3901 38.6906C82.6001 39.6906 83.46 40.8605 83.93 42.1805C84.25 43.0705 84.41 44.0805 84.41 45.1805C84.41 47.1805 83.6901 49.1006 82.3901 50.5906L82.41 50.5505Z" fill="#004DEE"/>
</svg>
