<svg width="420" height="438" viewBox="0 0 420 438" fill="none" xmlns="http://www.w3.org/2000/svg">
<g filter="url(#filter0_d_284_122)">
<path d="M19.0831 38.1404H11.7913V33.6455H31.7355V38.1404H24.4271V57.9847H19.0831V38.1404ZM56.158 33.6455H59.937V37.1415C59.8926 37.8408 59.7816 38.4123 59.6041 38.8563C59.4265 39.2891 59.1546 39.6332 58.7883 39.8884C58.4221 40.1437 57.9393 40.3268 57.34 40.4378C56.7517 40.5377 56.0359 40.5988 55.1924 40.6209V48.7784C55.1924 50.421 54.9538 51.8583 54.4765 53.0902C54.0104 54.3111 53.3278 55.3266 52.4288 56.1368C51.5409 56.947 50.4533 57.5574 49.1658 57.968C47.8895 58.3676 46.4356 58.5674 44.8041 58.5674C43.1726 58.5674 41.7131 58.3676 40.4257 57.968C39.1383 57.5685 38.0506 56.9636 37.1627 56.1534C36.2748 55.3432 35.5978 54.3277 35.1317 53.1069C34.6655 51.8749 34.4325 50.4321 34.4325 48.7784V33.6455H39.7931V48.7784C39.7931 49.4443 39.8486 50.0936 39.9596 50.7262C40.0816 51.3588 40.3203 51.9249 40.6754 52.4243C41.0306 52.9126 41.5356 53.3066 42.1904 53.6063C42.8452 53.906 43.7164 54.0558 44.8041 54.0558C45.7586 54.0558 46.5577 53.9504 47.2014 53.7395C47.8451 53.5286 48.3612 53.2068 48.7496 52.7739C49.1492 52.3411 49.4322 51.7917 49.5987 51.1258C49.7652 50.4598 49.8484 49.6774 49.8484 48.7784V33.6455H55.1924V39.2725C55.7806 39.2281 56.2634 39.167 56.6407 39.0893C57.0403 39.0117 57.3511 38.8951 57.573 38.7397C57.795 38.5844 57.9504 38.3846 58.0392 38.1404C58.1391 37.8851 58.2001 37.5577 58.2223 37.1582H56.158V33.6455ZM38.7609 26.6201H44.1215L47.3845 31.4646H44.0216L38.7609 26.6201ZM89.254 41.8196C89.1652 41.2203 88.9654 40.6598 88.6546 40.1382C88.3439 39.6165 87.9499 39.167 87.4726 38.7897C86.9954 38.4012 86.4516 38.1016 85.8411 37.8907C85.2418 37.6687 84.6092 37.5577 83.9433 37.5577C82.7446 37.5577 81.7236 37.7964 80.8801 38.2736C80.0366 38.7397 79.3485 39.3613 78.8157 40.1382C78.2941 40.9151 77.9112 41.8085 77.667 42.8185C77.434 43.8173 77.3174 44.8495 77.3174 45.915C77.3174 46.936 77.434 47.9349 77.667 48.9116C77.9112 49.8772 78.2941 50.7429 78.8157 51.5087C79.3485 52.2745 80.0366 52.8904 80.8801 53.3566C81.7236 53.8227 82.7446 54.0558 83.9433 54.0558C84.7535 54.0558 85.4804 53.9226 86.1242 53.6562C86.7679 53.3899 87.3173 53.0181 87.7723 52.5408C88.2273 52.0525 88.5936 51.4754 88.8711 50.8095C89.1596 50.1435 89.3538 49.411 89.4537 48.6119H94.6479C94.5147 50.1324 94.1595 51.5087 93.5824 52.7406C93.0053 53.9615 92.2506 55.0047 91.3183 55.8704C90.386 56.7361 89.2928 57.402 88.0387 57.8682C86.7956 58.3343 85.4305 58.5674 83.9433 58.5674C82.0565 58.5674 80.3695 58.24 78.8823 57.5851C77.4062 56.9192 76.1521 56.0147 75.1199 54.8715C74.0988 53.7284 73.3164 52.391 72.7726 50.8594C72.2398 49.3167 71.9735 47.6686 71.9735 45.915C71.9735 44.1059 72.2398 42.4189 72.7726 40.854C73.3164 39.2891 74.0988 37.9295 75.1199 36.7753C76.1521 35.621 77.4062 34.7165 78.8823 34.0617C80.3695 33.3958 82.0565 33.0628 83.9433 33.0628C85.2751 33.0628 86.5404 33.257 87.739 33.6455C88.9488 34.0228 90.0198 34.5833 90.952 35.3269C91.8954 36.0705 92.6723 36.9862 93.2828 38.0738C93.8932 39.1615 94.2761 40.4101 94.4315 41.8196H89.254ZM104.953 33.6455H110.43L119.536 57.9847H113.976L112.145 52.5575H103.038L101.124 57.9847H95.7133L104.953 33.6455ZM104.437 48.5786H110.746L107.683 39.6387H107.6L104.437 48.5786ZM105.419 26.6201H109.864L113.61 31.4646H109.614L107.5 28.7011L105.319 31.4646H101.64L105.419 26.6201ZM142.327 48.7784C142.327 50.421 142.089 51.8583 141.612 53.0902C141.145 54.3111 140.463 55.3266 139.564 56.1368C138.676 56.947 137.588 57.5574 136.301 57.968C135.025 58.3676 133.571 58.5674 131.939 58.5674C130.308 58.5674 128.848 58.3676 127.561 57.968C126.273 57.5685 125.186 56.9636 124.298 56.1534C123.41 55.3432 122.733 54.3277 122.267 53.1069C121.801 51.8749 121.568 50.4321 121.568 48.7784V33.6455H126.928V48.7784C126.928 49.4443 126.984 50.0936 127.095 50.7262C127.217 51.3588 127.455 51.9249 127.81 52.4243C128.166 52.9126 128.671 53.3066 129.325 53.6063C129.98 53.906 130.851 54.0558 131.939 54.0558C132.894 54.0558 133.693 53.9504 134.336 53.7395C134.98 53.5286 135.496 53.2068 135.885 52.7739C136.284 52.3411 136.567 51.7917 136.734 51.1258C136.9 50.4598 136.983 49.6774 136.983 48.7784V33.6455H142.327V48.7784ZM172.66 41.8196C172.571 41.2203 172.371 40.6598 172.061 40.1382C171.75 39.6165 171.356 39.167 170.879 38.7897C170.401 38.4012 169.857 38.1016 169.247 37.8907C168.648 37.6687 168.015 37.5577 167.349 37.5577C166.151 37.5577 165.129 37.7964 164.286 38.2736C163.443 38.7397 162.754 39.3613 162.222 40.1382C161.7 40.9151 161.317 41.8085 161.073 42.8185C160.84 43.8173 160.723 44.8495 160.723 45.915C160.723 46.936 160.84 47.9349 161.073 48.9116C161.317 49.8772 161.7 50.7429 162.222 51.5087C162.754 52.2745 163.443 52.8904 164.286 53.3566C165.129 53.8227 166.151 54.0558 167.349 54.0558C168.159 54.0558 168.886 53.9226 169.53 53.6562C170.174 53.3899 170.723 53.0181 171.178 52.5408C171.633 52.0525 172 51.4754 172.277 50.8095C172.566 50.1435 172.76 49.411 172.86 48.6119H178.054C177.921 50.1324 177.565 51.5087 176.988 52.7406C176.411 53.9615 175.657 55.0047 174.724 55.8704C173.792 56.7361 172.699 57.402 171.445 57.8682C170.202 58.3343 168.836 58.5674 167.349 58.5674C165.462 58.5674 163.775 58.24 162.288 57.5851C160.812 56.9192 159.558 56.0147 158.526 54.8715C157.505 53.7284 156.722 52.391 156.178 50.8594C155.646 49.3167 155.379 47.6686 155.379 45.915C155.379 44.1059 155.646 42.4189 156.178 40.854C156.722 39.2891 157.505 37.9295 158.526 36.7753C159.558 35.621 160.812 34.7165 162.288 34.0617C163.775 33.3958 165.462 33.0628 167.349 33.0628C168.681 33.0628 169.946 33.257 171.145 33.6455C172.355 34.0228 173.426 34.5833 174.358 35.3269C175.301 36.0705 176.078 36.9862 176.689 38.0738C177.299 39.1615 177.682 40.4101 177.837 41.8196H172.66ZM181.7 33.6455H187.06V42.9849H196.916V33.6455H202.26V57.9847H196.916V47.4799H187.06V57.9847H181.7V33.6455ZM227.631 48.7784C227.631 50.421 227.393 51.8583 226.915 53.0902C226.449 54.3111 225.767 55.3266 224.868 56.1368C223.98 56.947 222.892 57.5574 221.605 57.968C220.328 58.3676 218.874 58.5674 217.243 58.5674C215.611 58.5674 214.152 58.3676 212.865 57.968C211.577 57.5685 210.489 56.9636 209.602 56.1534C208.714 55.3432 208.037 54.3277 207.571 53.1069C207.104 51.8749 206.871 50.4321 206.871 48.7784V33.6455H212.232V48.7784C212.232 49.4443 212.287 50.0936 212.398 50.7262C212.52 51.3588 212.759 51.9249 213.114 52.4243C213.469 52.9126 213.974 53.3066 214.629 53.6063C215.284 53.906 216.155 54.0558 217.243 54.0558C218.197 54.0558 218.997 53.9504 219.64 53.7395C220.284 53.5286 220.8 53.2068 221.188 52.7739C221.588 52.3411 221.871 51.7917 222.038 51.1258C222.204 50.4598 222.287 49.6774 222.287 48.7784V33.6455H227.631V48.7784ZM238.552 48.512L229.596 33.6455H235.622L241.316 43.2513L246.976 33.6455H252.936L243.913 48.6452V57.9847H238.552V48.512ZM254.984 33.6455H273.196V38.1404H260.344V43.3512H272.131V47.5132H260.344V53.4898H273.463V57.9847H254.984V33.6455ZM261.493 26.6201H265.938L269.684 31.4646H265.688L263.574 28.7011L261.393 31.4646H257.714L261.493 26.6201ZM261.193 60.2655H266.038V65.0268H261.193V60.2655ZM277.092 33.6455H282.419L292.575 49.9771H292.641V33.6455H297.652V57.9847H292.308L282.17 41.6864H282.103V57.9847H277.092V33.6455Z" fill="#FFF175"/>
<path d="M91.7969 143.086L90.3216 115.547V77.1068H128.27V198H91.1412L48.0294 132.185L49.5047 159.724V198H11.5566V77.1068H48.6851L91.7969 143.086ZM151.383 198V77.1068H191.052V117.924H228.427V77.1068H268.096V198H228.427V151.2H191.052V198H151.383ZM349.156 103.498C344.675 103.498 340.932 104.537 337.927 106.613C334.922 108.635 332.518 111.257 330.715 114.481C328.911 117.705 327.627 121.311 326.862 125.3C326.152 129.234 325.797 133.114 325.797 136.939C325.797 139.507 325.934 142.157 326.207 144.889C326.535 147.566 327.026 150.189 327.682 152.757C328.392 155.325 329.321 157.757 330.469 160.052C331.671 162.347 333.146 164.341 334.895 166.035C336.698 167.729 338.774 169.095 341.124 170.133C343.528 171.117 346.315 171.608 349.484 171.608C353.746 171.608 357.379 170.734 360.385 168.986C363.445 167.237 365.931 164.833 367.843 161.773C369.756 158.658 371.149 154.998 372.023 150.79C372.897 146.528 373.335 141.911 373.335 136.939C373.335 132.841 372.897 128.77 372.023 124.726C371.149 120.683 369.728 117.077 367.761 113.908C365.849 110.684 363.363 108.116 360.303 106.203C357.243 104.291 353.527 103.389 349.156 103.498ZM349.484 73.9923C356.642 73.9923 363.171 74.8119 369.073 76.4511C375.028 78.0903 380.356 80.3579 385.055 83.2539C389.754 86.0952 393.852 89.5103 397.349 93.4991C400.846 97.4332 403.742 101.75 406.037 106.449C408.332 111.093 410.053 116.011 411.201 121.202C412.348 126.393 412.922 131.639 412.922 136.939C412.922 147.211 411.283 156.336 408.004 164.314C404.781 172.291 400.3 179.012 394.563 184.476C388.88 189.94 382.159 194.093 374.4 196.935C366.696 199.776 358.39 201.196 349.484 201.196C339.976 201.196 331.343 199.776 323.584 196.935C315.825 194.039 309.159 189.831 303.585 184.312C298.067 178.794 293.777 172.018 290.717 163.986C287.712 155.954 286.21 146.801 286.21 136.529C286.21 127.076 287.739 118.497 290.799 110.793C293.859 103.089 298.176 96.5317 303.749 91.1222C309.323 85.6581 315.989 81.4508 323.748 78.5001C331.507 75.4949 340.086 73.9923 349.484 73.9923ZM341.616 66.042H358.418C358.308 61.2882 359.538 58.0644 362.106 56.3705C363.69 55.3324 365.22 54.2395 366.696 53.0921C368.226 51.89 369.318 50.8245 369.974 49.8956C371.887 47.4914 372.843 44.6774 372.843 41.4535C372.843 34.7327 369.428 29.7604 362.598 26.5365C360.631 25.6623 358.5 25.0339 356.205 24.6514C353.964 24.2143 351.697 23.9957 349.402 23.9957C346.451 23.9957 343.747 24.3509 341.288 25.0612C338.829 25.7716 336.589 26.8098 334.567 28.1758C329.758 31.6728 327.354 37.656 327.354 46.1253L345.386 45.9614C345.386 43.7211 345.714 41.836 346.369 40.3061C347.025 38.7761 348.227 38.0112 349.976 38.0112C351.123 38.0112 352.079 38.3117 352.844 38.9127C353.664 39.5138 354.074 40.4427 354.074 41.6994C354.074 43.2294 352.899 44.7047 350.549 46.1253C348.637 47.3821 347.025 48.6662 345.714 49.9775C344.457 51.2343 343.528 52.573 342.927 53.9936C342.38 55.4143 341.998 57.1355 341.779 59.1572C341.616 61.1243 341.561 63.4192 341.616 66.042Z" fill="#FFF175"/>
<path d="M13.7539 239.559H11.1172V234.93H13.7539V223.445H26.0781C27.9271 223.445 29.6393 223.738 31.2148 224.324C32.8034 224.897 34.1771 225.77 35.3359 226.941C36.4948 228.113 37.3997 229.585 38.0508 231.355C38.7148 233.126 39.0469 235.197 39.0469 237.566C39.0469 239.637 38.7799 241.557 38.2461 243.328C37.7122 245.086 36.9049 246.609 35.8242 247.898C34.7565 249.174 33.4089 250.177 31.7812 250.906C30.1667 251.635 28.2656 252 26.0781 252H13.7539V239.559ZM20.043 234.93H26.4492V239.598H20.043V246.727H25.6484C26.5599 246.727 27.4388 246.577 28.2852 246.277C29.1445 245.978 29.9062 245.49 30.5703 244.812C31.2344 244.135 31.7617 243.257 32.1523 242.176C32.556 241.082 32.7578 239.741 32.7578 238.152C32.7578 236.707 32.6211 235.405 32.3477 234.246C32.0742 233.087 31.6185 232.098 30.9805 231.277C30.3424 230.457 29.4961 229.826 28.4414 229.383C27.3867 228.94 26.0781 228.719 24.5156 228.719H20.043V234.93ZM43.4023 223.445H64.7695V228.719H49.6914V234.832H63.5195V239.715H49.6914V246.727H65.082V252H43.4023V223.445ZM51.0391 215.203H56.2539L60.6484 220.887H55.9609L53.4805 217.645L50.9219 220.887H46.6055L51.0391 215.203ZM63.1094 216.805H59.1445L62.9727 211.121H69.2617L63.1094 216.805ZM69.3398 223.445H75.5898L87.5039 242.605H87.582V223.445H93.4609V252H87.1914L75.2969 232.879H75.2188V252H69.3398V223.445ZM110.121 223.445H116.41V234.402H127.973V223.445H134.242V252H127.973V239.676H116.41V252H110.121V223.445ZM138.539 237.84C138.539 235.717 138.852 233.738 139.477 231.902C140.115 230.066 141.033 228.471 142.23 227.117C143.441 225.763 144.913 224.702 146.645 223.934C148.389 223.152 150.368 222.762 152.582 222.762C154.783 222.762 156.755 223.152 158.5 223.934C160.245 224.702 161.716 225.763 162.914 227.117C164.112 228.471 165.03 230.066 165.668 231.902C166.306 233.738 166.625 235.717 166.625 237.84C166.625 239.897 166.306 241.831 165.668 243.641C165.03 245.438 164.112 247.007 162.914 248.348C161.716 249.689 160.245 250.75 158.5 251.531C156.755 252.299 154.783 252.684 152.582 252.684C150.368 252.684 148.389 252.299 146.645 251.531C144.913 250.75 143.441 249.689 142.23 248.348C141.033 247.007 140.115 245.438 139.477 243.641C138.852 241.831 138.539 239.897 138.539 237.84ZM144.809 237.84C144.809 239.038 144.945 240.21 145.219 241.355C145.505 242.488 145.954 243.504 146.566 244.402C147.191 245.301 147.999 246.023 148.988 246.57C149.978 247.117 151.176 247.391 152.582 247.391C153.988 247.391 155.18 247.117 156.156 246.57C157.146 246.023 157.947 245.301 158.559 244.402C159.184 243.504 159.633 242.488 159.906 241.355C160.193 240.21 160.336 239.038 160.336 237.84C160.336 236.59 160.193 235.379 159.906 234.207C159.633 233.022 159.184 231.974 158.559 231.062C157.947 230.151 157.146 229.422 156.156 228.875C155.18 228.315 153.988 228.035 152.582 228.035C151.176 228.035 149.978 228.315 148.988 228.875C147.999 229.422 147.191 230.151 146.566 231.062C145.954 231.974 145.505 233.022 145.219 234.207C144.945 235.379 144.809 236.59 144.809 237.84ZM149.848 254.617H155.531V260.203H149.848V254.617ZM189.945 233.035C189.841 232.332 189.607 231.674 189.242 231.062C188.878 230.451 188.415 229.923 187.855 229.48C187.296 229.025 186.658 228.673 185.941 228.426C185.238 228.165 184.496 228.035 183.715 228.035C182.309 228.035 181.111 228.315 180.121 228.875C179.132 229.422 178.324 230.151 177.699 231.062C177.087 231.974 176.638 233.022 176.352 234.207C176.078 235.379 175.941 236.59 175.941 237.84C175.941 239.038 176.078 240.21 176.352 241.355C176.638 242.488 177.087 243.504 177.699 244.402C178.324 245.301 179.132 246.023 180.121 246.57C181.111 247.117 182.309 247.391 183.715 247.391C184.665 247.391 185.518 247.234 186.273 246.922C187.029 246.609 187.673 246.173 188.207 245.613C188.741 245.04 189.171 244.363 189.496 243.582C189.835 242.801 190.062 241.941 190.18 241.004H196.273C196.117 242.788 195.701 244.402 195.023 245.848C194.346 247.28 193.461 248.504 192.367 249.52C191.273 250.535 189.991 251.316 188.52 251.863C187.061 252.41 185.46 252.684 183.715 252.684C181.501 252.684 179.522 252.299 177.777 251.531C176.046 250.75 174.574 249.689 173.363 248.348C172.165 247.007 171.247 245.438 170.609 243.641C169.984 241.831 169.672 239.897 169.672 237.84C169.672 235.717 169.984 233.738 170.609 231.902C171.247 230.066 172.165 228.471 173.363 227.117C174.574 225.763 176.046 224.702 177.777 223.934C179.522 223.152 181.501 222.762 183.715 222.762C185.277 222.762 186.762 222.99 188.168 223.445C189.587 223.888 190.844 224.546 191.938 225.418C193.044 226.29 193.956 227.365 194.672 228.641C195.388 229.917 195.837 231.382 196.02 233.035H189.945ZM217.973 247.117H224.691C225.316 247.117 225.909 247.059 226.469 246.941C227.029 246.824 227.517 246.629 227.934 246.355C228.363 246.069 228.702 245.685 228.949 245.203C229.197 244.721 229.32 244.109 229.32 243.367C229.32 242.638 229.21 242.013 228.988 241.492C228.767 240.971 228.454 240.548 228.051 240.223C227.66 239.897 227.185 239.663 226.625 239.52C226.078 239.363 225.473 239.285 224.809 239.285H217.973V247.117ZM211.684 223.445H225.121C226.488 223.445 227.732 223.569 228.852 223.816C229.971 224.051 230.928 224.441 231.723 224.988C232.53 225.535 233.148 226.264 233.578 227.176C234.021 228.074 234.242 229.188 234.242 230.516C234.242 231.935 233.91 233.133 233.246 234.109C232.582 235.086 231.625 235.874 230.375 236.473C232.12 236.98 233.428 237.872 234.301 239.148C235.173 240.411 235.609 241.935 235.609 243.719C235.609 245.164 235.323 246.414 234.75 247.469C234.19 248.51 233.441 249.37 232.504 250.047C231.566 250.711 230.492 251.206 229.281 251.531C228.07 251.844 226.82 252 225.531 252H211.684V223.445ZM217.973 235.008H224.32C224.867 235.008 225.375 234.943 225.844 234.812C226.326 234.682 226.736 234.48 227.074 234.207C227.413 233.934 227.68 233.582 227.875 233.152C228.07 232.723 228.168 232.208 228.168 231.609C228.168 230.932 228.044 230.379 227.797 229.949C227.562 229.52 227.243 229.188 226.84 228.953C226.449 228.706 225.993 228.543 225.473 228.465C224.952 228.374 224.411 228.328 223.852 228.328H217.973V235.008ZM238.617 237.84C238.617 235.717 238.93 233.738 239.555 231.902C240.193 230.066 241.111 228.471 242.309 227.117C243.52 225.763 244.991 224.702 246.723 223.934C248.467 223.152 250.447 222.762 252.66 222.762C254.861 222.762 256.833 223.152 258.578 223.934C260.323 224.702 261.794 225.763 262.992 227.117C264.19 228.471 265.108 230.066 265.746 231.902C266.384 233.738 266.703 235.717 266.703 237.84C266.703 239.897 266.384 241.831 265.746 243.641C265.108 245.438 264.19 247.007 262.992 248.348C261.794 249.689 260.323 250.75 258.578 251.531C256.833 252.299 254.861 252.684 252.66 252.684C250.447 252.684 248.467 252.299 246.723 251.531C244.991 250.75 243.52 249.689 242.309 248.348C241.111 247.007 240.193 245.438 239.555 243.641C238.93 241.831 238.617 239.897 238.617 237.84ZM244.887 237.84C244.887 239.038 245.023 240.21 245.297 241.355C245.583 242.488 246.033 243.504 246.645 244.402C247.27 245.301 248.077 246.023 249.066 246.57C250.056 247.117 251.254 247.391 252.66 247.391C254.066 247.391 255.258 247.117 256.234 246.57C257.224 246.023 258.025 245.301 258.637 244.402C259.262 243.504 259.711 242.488 259.984 241.355C260.271 240.21 260.414 239.038 260.414 237.84C260.414 236.59 260.271 235.379 259.984 234.207C259.711 233.022 259.262 231.974 258.637 231.062C258.025 230.151 257.224 229.422 256.234 228.875C255.258 228.315 254.066 228.035 252.66 228.035C251.254 228.035 250.056 228.315 249.066 228.875C248.077 229.422 247.27 230.151 246.645 231.062C246.033 231.974 245.583 233.022 245.297 234.207C245.023 235.379 244.887 236.59 244.887 237.84ZM245.648 220.887L250.102 215.203H255.297L259.691 220.887H255.023L252.543 217.645L249.965 220.887H245.648ZM258.637 217.41H261.469C261.456 216.863 261.527 216.401 261.684 216.023C261.853 215.646 262.1 215.34 262.426 215.105C263.207 214.559 263.747 214.064 264.047 213.621C264.411 213.087 264.594 212.456 264.594 211.727C264.594 210.229 263.936 209.116 262.621 208.387C261.801 208.009 260.909 207.82 259.945 207.82C258.76 207.82 257.771 208.139 256.977 208.777H256.996C256.033 209.546 255.551 210.783 255.551 212.488L258.676 212.449C258.676 211.902 258.773 211.44 258.969 211.062C259.177 210.685 259.542 210.496 260.062 210.496C260.401 210.496 260.701 210.6 260.961 210.809C261.221 211.017 261.352 211.349 261.352 211.805C261.352 212.312 261.039 212.781 260.414 213.211C259.633 213.758 259.132 214.337 258.91 214.949C258.806 215.262 258.728 215.626 258.676 216.043C258.637 216.447 258.624 216.902 258.637 217.41ZM270.98 223.445H277.23L289.145 242.605H289.223V223.445H295.102V252H288.832L276.938 232.879H276.859V252H270.98V223.445ZM321.273 248.758C320.727 249.474 320.134 250.079 319.496 250.574C318.871 251.069 318.227 251.473 317.562 251.785C316.898 252.098 316.215 252.326 315.512 252.469C314.822 252.612 314.132 252.684 313.441 252.684C311.228 252.684 309.249 252.299 307.504 251.531C305.772 250.75 304.301 249.689 303.09 248.348C301.892 247.007 300.974 245.438 300.336 243.641C299.711 241.831 299.398 239.897 299.398 237.84C299.398 235.717 299.711 233.738 300.336 231.902C300.974 230.066 301.892 228.471 303.09 227.117C304.301 225.763 305.772 224.702 307.504 223.934C309.249 223.152 311.228 222.762 313.441 222.762C314.9 222.762 316.312 222.983 317.68 223.426C319.06 223.868 320.297 224.52 321.391 225.379C322.484 226.225 323.396 227.28 324.125 228.543C324.854 229.793 325.303 231.225 325.473 232.84H319.477C319.294 232.046 319.014 231.349 318.637 230.75C318.272 230.151 317.823 229.65 317.289 229.246C316.768 228.842 316.182 228.543 315.531 228.348C314.88 228.139 314.184 228.035 313.441 228.035C312.035 228.035 310.837 228.315 309.848 228.875C308.858 229.422 308.051 230.151 307.426 231.062C306.814 231.974 306.365 233.022 306.078 234.207C305.805 235.379 305.668 236.59 305.668 237.84C305.668 239.038 305.805 240.21 306.078 241.355C306.365 242.488 306.814 243.504 307.426 244.402C308.051 245.301 308.858 246.023 309.848 246.57C310.837 247.117 312.035 247.391 313.441 247.391C315.499 247.391 317.1 246.863 318.246 245.809C319.392 244.754 320.056 243.23 320.238 241.238H313.91V236.551H325.922V252H321.918L321.273 248.758Z" fill="#FFF175"/>
<path d="M13.2077 426V301.119H54.1008V396.875H110.318V426H13.2077ZM187.787 297.902C195.181 297.902 201.926 298.749 208.022 300.442C214.174 302.135 219.677 304.478 224.531 307.469C229.385 310.404 233.619 313.932 237.231 318.052C240.843 322.116 243.835 326.575 246.205 331.429L246.629 332.276C248.153 332.05 249.394 331.768 250.354 331.429C251.483 331.091 252.301 330.724 252.809 330.329C253.374 329.934 253.853 329.539 254.249 329.143C255.095 328.353 255.631 327.309 255.857 326.011C256.139 324.713 256.337 323.443 256.45 322.201H245.613V301.289H268.134V318.984C268.134 323.894 267.541 327.902 266.356 331.006C265.17 334.054 263.336 336.453 260.852 338.203C258.425 339.952 255.349 341.138 251.624 341.758C251.172 341.871 250.721 341.956 250.269 342.012C250.777 343.536 251.201 345.089 251.539 346.669C252.725 352.031 253.317 357.45 253.317 362.925C253.317 373.536 251.624 382.962 248.237 391.203C244.907 399.443 240.279 406.386 234.352 412.03C228.482 417.675 221.54 421.964 213.525 424.899C205.566 427.834 196.987 429.302 187.787 429.302C177.966 429.302 169.047 427.834 161.033 424.899C153.018 421.908 146.132 417.562 140.374 411.861C134.674 406.16 130.243 399.161 127.082 390.864C123.978 382.567 122.425 373.113 122.425 362.501C122.425 352.737 124.006 343.875 127.167 335.917C130.327 327.958 134.786 321.185 140.544 315.597C146.301 309.953 153.187 305.607 161.202 302.559C169.217 299.454 178.078 297.902 187.787 297.902ZM187.448 328.381C182.82 328.381 178.953 329.454 175.849 331.599C172.745 333.687 170.261 336.396 168.398 339.727C166.536 343.057 165.209 346.782 164.419 350.902C163.685 354.966 163.318 358.974 163.318 362.925C163.318 365.578 163.46 368.315 163.742 371.137C164.08 373.903 164.588 376.612 165.266 379.265C166 381.918 166.959 384.43 168.144 386.8C169.386 389.171 170.91 391.231 172.716 392.981C174.579 394.73 176.724 396.142 179.151 397.214C181.634 398.23 184.513 398.738 187.787 398.738C192.189 398.738 195.943 397.835 199.047 396.029C202.208 394.222 204.776 391.739 206.752 388.578C208.727 385.361 210.166 381.579 211.069 377.233C211.973 372.83 212.424 368.061 212.424 362.925C212.424 358.691 211.973 354.486 211.069 350.31C210.166 346.133 208.699 342.408 206.667 339.134C204.691 335.804 202.123 333.151 198.962 331.175C195.802 329.2 191.963 328.269 187.448 328.381ZM187.787 264.036H224.023L194.221 289.69H170.43L187.787 264.036ZM363.382 369.275L361.858 340.827V301.119H401.057V426H362.704L318.17 358.014L319.694 386.462V426H280.495V301.119H318.848L363.382 369.275Z" fill="#FFF175"/>
</g>
<defs>
<filter id="filter0_d_284_122" x="7.11719" y="23.9957" width="409.805" height="413.306" filterUnits="userSpaceOnUse" color-interpolation-filters="sRGB">
<feFlood flood-opacity="0" result="BackgroundImageFix"/>
<feColorMatrix in="SourceAlpha" type="matrix" values="0 0 0 0 0 0 0 0 0 0 0 0 0 0 0 0 0 0 127 0" result="hardAlpha"/>
<feOffset dy="4"/>
<feGaussianBlur stdDeviation="2"/>
<feComposite in2="hardAlpha" operator="out"/>
<feColorMatrix type="matrix" values="0 0 0 0 0 0 0 0 0 0.300298 0 0 0 0 0.933654 0 0 0 1 0"/>
<feBlend mode="normal" in2="BackgroundImageFix" result="effect1_dropShadow_284_122"/>
<feBlend mode="normal" in="SourceGraphic" in2="effect1_dropShadow_284_122" result="shape"/>
</filter>
</defs>
</svg>
