<svg width="15" height="15" viewBox="0 0 15 15" fill="none" xmlns="http://www.w3.org/2000/svg">
<g clip-path="url(#clip0_238_518)">
<path d="M9.40621 3.125C10.0167 3.2441 10.5777 3.54266 11.0175 3.98246C11.4573 4.42226 11.7559 4.98329 11.875 5.59375M9.40621 0.625C10.6745 0.765898 11.8572 1.33386 12.7601 2.23563C13.663 3.1374 14.2325 4.31938 14.375 5.5875M13.75 10.575V12.45C13.7507 12.6241 13.715 12.7964 13.6453 12.9558C13.5755 13.1153 13.4733 13.2585 13.345 13.3762C13.2167 13.4938 13.0653 13.5834 12.9004 13.6392C12.7355 13.695 12.5608 13.7157 12.3875 13.7C10.4642 13.491 8.61683 12.8338 6.99371 11.7813C5.4836 10.8217 4.20329 9.54136 3.24371 8.03125C2.18744 6.40075 1.53011 4.54437 1.32496 2.6125C1.30934 2.43967 1.32988 2.26548 1.38527 2.10102C1.44066 1.93656 1.52969 1.78543 1.64669 1.65726C1.76368 1.5291 1.90609 1.42669 2.06483 1.35658C2.22357 1.28646 2.39517 1.25016 2.56871 1.25H4.44371C4.74702 1.24701 5.04108 1.35442 5.27106 1.55221C5.50104 1.74999 5.65126 2.02465 5.69371 2.325C5.77285 2.92504 5.91961 3.5142 6.13121 4.08125C6.2153 4.30495 6.2335 4.54807 6.18365 4.7818C6.1338 5.01553 6.018 5.23007 5.84996 5.4L5.05621 6.19375C5.94593 7.75847 7.24149 9.05403 8.80621 9.94375L9.59996 9.15C9.76989 8.98196 9.98443 8.86616 10.2182 8.81631C10.4519 8.76646 10.695 8.78466 10.9187 8.86875C11.4858 9.08034 12.0749 9.22711 12.675 9.30625C12.9786 9.34908 13.2558 9.502 13.454 9.73593C13.6522 9.96986 13.7576 10.2685 13.75 10.575Z" stroke="#0D2542" stroke-width="1.25" stroke-linecap="round" stroke-linejoin="round"/>
</g>
<defs>
<clipPath id="clip0_238_518">
<rect width="15" height="15" fill="white"/>
</clipPath>
</defs>
</svg>
