<svg width="114" height="114" viewBox="0 0 114 114" fill="none" xmlns="http://www.w3.org/2000/svg">
<path d="M56.54 0C25.31 0 0 25.32 0 56.54C0 87.76 25.32 113.08 56.54 113.08C87.76 113.08 113.08 87.76 113.08 56.54C113.08 25.32 87.76 0 56.54 0ZM56.54 107.72C28.27 107.72 5.35999 84.81 5.35999 56.54C5.35999 28.27 28.27 5.35999 56.54 5.35999C84.81 5.35999 107.72 28.27 107.72 56.54C107.72 84.81 84.81 107.72 56.54 107.72Z" fill="#004DEE"/>
<path d="M36.1898 69.9688H41.0798C41.5698 69.9688 41.9698 70.3688 41.9698 70.8588V75.7488C41.9698 76.2388 41.5698 76.6388 41.0798 76.6388H36.1898C35.6998 76.6388 35.2998 76.2388 35.2998 75.7488V70.8588C35.2998 70.3688 35.6998 69.9688 36.1898 69.9688Z" fill="#004DEE"/>
<path d="M36.1898 58.2695H41.0798C41.5698 58.2695 41.9698 58.6695 41.9698 59.1595V64.0496C41.9698 64.5396 41.5698 64.9396 41.0798 64.9396H36.1898C35.6998 64.9396 35.2998 64.5396 35.2998 64.0496V59.1595C35.2998 58.6695 35.6998 58.2695 36.1898 58.2695Z" fill="#004DEE"/>
<path d="M36.1898 46.5703H41.0798C41.5698 46.5703 41.9698 46.9702 41.9698 47.4602V52.3502C41.9698 52.8402 41.5698 53.2402 41.0798 53.2402H36.1898C35.6998 53.2402 35.2998 52.8402 35.2998 52.3502V47.4602C35.2998 46.9702 35.6998 46.5703 36.1898 46.5703Z" fill="#004DEE"/>
<path fill-rule="evenodd" clip-rule="evenodd" d="M87.7698 48.4606V33.2706C87.7698 28.4306 83.8498 24.5106 79.0098 24.5106H71.3599V23.0106C71.3599 21.5706 70.1899 20.4006 68.7499 20.4006C67.3099 20.4006 66.1398 21.5706 66.1398 23.0106V24.5006H46.7399V23.0006C46.7399 21.5606 45.5699 20.3906 44.1299 20.3906C42.6899 20.3906 41.5198 21.5606 41.5198 23.0006V24.4906H33.8699C29.0299 24.4906 25.1099 28.4106 25.1099 33.2506V78.3706C25.1099 83.2106 29.0299 87.1306 33.8699 87.1306H56.4199C60.7199 90.6806 66.2399 92.8107 72.2499 92.8107C85.9999 92.8107 97.1498 81.6606 97.1498 67.9106C97.1498 60.3006 93.6998 53.1707 87.7598 48.4407L87.7698 48.4606ZM30.3398 33.2706C30.3398 31.3106 31.9298 29.7206 33.8898 29.7206H41.5399V31.2106C41.5399 32.6506 42.6998 33.8207 44.1498 33.8207C45.5898 33.8207 46.7598 32.6506 46.7598 31.2106V29.7106H66.1599V31.2007C66.1599 32.6407 67.3198 33.8107 68.7698 33.8107C70.2098 33.8107 71.3799 32.6407 71.3799 31.2007V29.7007H79.0298C80.9898 29.7007 82.5798 31.2906 82.5798 33.2506V36.8007H30.3599V33.2506L30.3398 33.2706ZM47.8898 53.2406H52.1599C49.1399 57.3606 47.3599 62.4407 47.3599 67.9307C47.3599 73.1207 48.9499 77.9407 51.6699 81.9407H33.8799C31.9199 81.9407 30.3298 80.3506 30.3298 78.3906V42.0206H82.5499V45.2606C79.4099 43.8306 75.9199 43.0406 72.2499 43.0406C65.3799 43.0406 59.1498 45.8307 54.6498 50.3307C54.3098 50.6707 53.9899 51.0106 53.6699 51.3706V47.4606C53.6699 46.9706 53.2698 46.5707 52.7798 46.5707H47.8898C47.3998 46.5707 46.9999 46.9706 46.9999 47.4606V52.3506C46.9999 52.8406 47.3998 53.2406 47.8898 53.2406ZM72.2598 87.2706C66.9198 87.2706 62.0798 85.1106 58.5798 81.6106C55.0798 78.1106 52.9199 73.2807 52.9199 67.9307C52.9199 57.2507 61.5798 48.5906 72.2598 48.5906C82.9398 48.5906 91.5999 57.2507 91.5999 67.9307C91.5999 78.6107 82.9398 87.2706 72.2598 87.2706Z" fill="#004DEE"/>
<path fill-rule="evenodd" clip-rule="evenodd" d="M75.04 66.9303V58.3502C75.04 56.8202 73.7999 55.5703 72.2599 55.5703C70.7199 55.5703 69.48 56.8102 69.48 58.3502V67.9403C69.48 68.5703 69.7 69.2102 70.14 69.7302L78.75 79.9103C79.74 81.0803 81.49 81.2202 82.66 80.2402C83.83 79.2502 83.97 77.5003 82.99 76.3303L75.04 66.9303Z" fill="#004DEE"/>
</svg>
