<svg width="113" height="113" viewBox="0 0 113 113" fill="none" xmlns="http://www.w3.org/2000/svg">
<path d="M56.5 0C25.3 0 0 25.3 0 56.5C0 87.7 25.3 113 56.5 113C87.7 113 113 87.7 113 56.5C113 25.3 87.7 0 56.5 0ZM56.5 107.65C28.25 107.65 5.36 84.75 5.36 56.51C5.36 28.27 28.26 5.37 56.5 5.37C84.74 5.37 107.64 28.27 107.64 56.51C107.64 84.75 84.74 107.65 56.5 107.65Z" fill="#004DEE"/>
<path fill-rule="evenodd" clip-rule="evenodd" d="M77.7699 25H73.3398V30H77.7699C80.6599 30 82.9998 32.34 82.9998 35.24V39.6699H87.9998V35.24C87.9998 29.59 83.4199 25.01 77.7699 25.01V25Z" fill="#004DEE"/>
<path fill-rule="evenodd" clip-rule="evenodd" d="M29.9897 35.2378C29.9897 32.3478 32.3297 30.0078 35.2197 30.0078H39.6497V25.0078H35.2197C29.5697 25.0078 24.9897 29.5878 24.9897 35.2378V39.6677H29.9897V35.2378Z" fill="#004DEE"/>
<path fill-rule="evenodd" clip-rule="evenodd" d="M84.1399 56.5072C84.1399 41.2472 71.7699 28.8672 56.4999 28.8672C41.2399 28.8672 28.8599 41.2372 28.8599 56.5072C28.8599 66.4072 34.1399 75.4871 42.6399 80.4171L35.8999 88.0072H43.1999L48.3099 82.8971C50.9599 83.7171 53.7199 84.1471 56.4999 84.1471C59.2799 84.1471 62.0299 83.7271 64.6899 82.8971L69.7999 88.0072H77.0999L70.3599 80.4171C78.8699 75.4771 84.1399 66.4072 84.1399 56.5072ZM56.4999 79.1372C43.9999 79.1372 33.8599 69.0072 33.8599 56.4972C33.8599 43.9972 43.9999 33.8572 56.4999 33.8572C68.9999 33.8572 79.1399 43.9972 79.1399 56.4972C79.1399 68.9972 69.0099 79.1372 56.4999 79.1372Z" fill="#004DEE"/>
<path fill-rule="evenodd" clip-rule="evenodd" d="M72.03 53.9987H59V45.3086C59 43.9286 57.88 42.8086 56.5 42.8086C55.12 42.8086 54 43.9286 54 45.3086V56.4987C54 57.8787 55.12 58.9987 56.5 58.9987H72.03C73.41 58.9987 74.53 57.8787 74.53 56.4987C74.53 55.1187 73.41 53.9987 72.03 53.9987Z" fill="#004DEE"/>
</svg>
