<svg width="19" height="23" viewBox="0 0 19 23" fill="none" xmlns="http://www.w3.org/2000/svg">
<path d="M15.5345 5.13974C15.4029 5.06727 15.2731 4.98674 15.149 4.89816C14.7861 4.64048 14.4532 4.33851 14.158 3.99628C13.4189 3.09037 13.1425 2.17037 13.041 1.52818H13.0447C12.9601 0.994696 12.994 0.648438 12.9996 0.648438H9.62978V14.5934C9.62978 14.7806 9.62978 14.9658 9.62226 15.149C9.62226 15.1712 9.62038 15.1933 9.6185 15.2175C9.6185 15.2276 9.6185 15.2376 9.61662 15.2477V15.2557C9.54516 16.2724 9.00546 17.1823 8.17805 17.6856C7.75306 17.9453 7.27354 18.0802 6.78462 18.0802C5.21442 18.0802 3.94321 16.7092 3.94321 15.0182C3.94321 13.3272 5.21442 11.9562 6.78462 11.9562C7.08173 11.9562 7.37697 12.0065 7.65904 12.1052L7.6628 8.43323C5.929 8.19366 4.18015 8.74124 2.84125 9.94308C2.26018 10.4826 1.77314 11.1268 1.39892 11.8475C1.25601 12.1092 0.72007 13.1641 0.654253 14.8773C0.612882 15.8496 0.885553 16.8562 1.01531 17.2709V17.2789C1.09617 17.5245 1.41397 18.36 1.92922 19.0646C2.34481 19.6303 2.83749 20.1275 3.38847 20.5382V20.5301L3.39599 20.5382C5.02637 21.7239 6.83539 21.6474 6.83539 21.6474C7.14755 21.6333 8.19686 21.6474 9.3872 21.0435C10.7073 20.3731 11.4595 19.3766 11.4595 19.3766C11.939 18.7807 12.3226 18.1003 12.5897 17.3675C12.8943 16.5099 12.9958 15.4812 12.9958 15.0685V7.67025C13.0372 7.69642 13.5807 8.08093 13.5807 8.08093C13.5807 8.08093 14.3648 8.61844 15.589 8.96872C16.4672 9.21835 17.65 9.27069 17.65 9.27069V5.69134C17.2363 5.73965 16.3939 5.59873 15.5326 5.13974H15.5345Z" stroke="#032852" stroke-width="1.3" stroke-linejoin="round"/>
</svg>
