<svg width="287" height="32" viewBox="0 0 287 32" fill="none" xmlns="http://www.w3.org/2000/svg">
<path d="M18.625 1.23438V3.96875H10.8906V24.1875H7.73438V3.96875H0V1.23438H18.625ZM20 7.45312H22.6719V10.3438C22.8906 9.78125 23.4271 9.09896 24.2812 8.29688C25.1354 7.48438 26.1198 7.07812 27.2344 7.07812C27.2865 7.07812 27.375 7.08333 27.5 7.09375C27.625 7.10417 27.8385 7.125 28.1406 7.15625V10.125C27.974 10.0938 27.8177 10.0729 27.6719 10.0625C27.5365 10.0521 27.3854 10.0469 27.2188 10.0469C25.8021 10.0469 24.7135 10.5052 23.9531 11.4219C23.1927 12.3281 22.8125 13.375 22.8125 14.5625V24.1875H20V7.45312ZM32.7344 19.7344C32.7344 20.5469 33.0312 21.1875 33.625 21.6562C34.2188 22.125 34.9219 22.3594 35.7344 22.3594C36.724 22.3594 37.6823 22.1302 38.6094 21.6719C40.1719 20.9115 40.9531 19.6667 40.9531 17.9375V15.6719C40.6094 15.8906 40.1667 16.0729 39.625 16.2188C39.0833 16.3646 38.5521 16.4688 38.0312 16.5312L36.3281 16.75C35.3073 16.8854 34.5417 17.099 34.0312 17.3906C33.1667 17.8802 32.7344 18.6615 32.7344 19.7344ZM39.5469 14.0469C40.1927 13.9635 40.625 13.6927 40.8438 13.2344C40.9688 12.9844 41.0312 12.625 41.0312 12.1562C41.0312 11.1979 40.6875 10.5052 40 10.0781C39.3229 9.64062 38.349 9.42188 37.0781 9.42188C35.6094 9.42188 34.5677 9.81771 33.9531 10.6094C33.6094 11.0469 33.3854 11.6979 33.2812 12.5625H30.6562C30.7083 10.5 31.375 9.06771 32.6562 8.26562C33.9479 7.45312 35.4427 7.04688 37.1406 7.04688C39.1094 7.04688 40.7083 7.42188 41.9375 8.17188C43.1562 8.92188 43.7656 10.0885 43.7656 11.6719V21.3125C43.7656 21.6042 43.8229 21.8385 43.9375 22.0156C44.0625 22.1927 44.3177 22.2812 44.7031 22.2812C44.8281 22.2812 44.9688 22.276 45.125 22.2656C45.2812 22.2448 45.4479 22.2188 45.625 22.1875V24.2656C45.1875 24.3906 44.8542 24.4688 44.625 24.5C44.3958 24.5312 44.0833 24.5469 43.6875 24.5469C42.7188 24.5469 42.0156 24.2031 41.5781 23.5156C41.349 23.151 41.1875 22.6354 41.0938 21.9688C40.5208 22.7188 39.6979 23.3698 38.625 23.9219C37.5521 24.474 36.3698 24.75 35.0781 24.75C33.526 24.75 32.2552 24.2812 31.2656 23.3438C30.2865 22.3958 29.7969 21.2135 29.7969 19.7969C29.7969 18.2448 30.2812 17.0417 31.25 16.1875C32.2188 15.3333 33.4896 14.8073 35.0625 14.6094L39.5469 14.0469ZM48.3906 7.45312H51.0625V9.82812C51.8542 8.84896 52.6927 8.14583 53.5781 7.71875C54.4635 7.29167 55.4479 7.07812 56.5312 7.07812C58.9062 7.07812 60.5104 7.90625 61.3438 9.5625C61.8021 10.4688 62.0312 11.7656 62.0312 13.4531V24.1875H59.1719V13.6406C59.1719 12.6198 59.0208 11.7969 58.7188 11.1719C58.2188 10.1302 57.3125 9.60938 56 9.60938C55.3333 9.60938 54.7865 9.67708 54.3594 9.8125C53.5885 10.0417 52.9115 10.5 52.3281 11.1875C51.8594 11.7396 51.5521 12.3125 51.4062 12.9062C51.2708 13.4896 51.2031 14.3281 51.2031 15.4219V24.1875H48.3906V7.45312ZM72.1094 7.15625C73.4219 7.15625 74.5677 7.47917 75.5469 8.125C76.0781 8.48958 76.6198 9.02083 77.1719 9.71875V7.60938H79.7656V22.8281C79.7656 24.9531 79.4531 26.6302 78.8281 27.8594C77.6615 30.1302 75.4583 31.2656 72.2188 31.2656C70.4167 31.2656 68.901 30.8594 67.6719 30.0469C66.4427 29.2448 65.7552 27.9844 65.6094 26.2656H68.4688C68.6042 27.0156 68.875 27.5938 69.2812 28C69.9167 28.625 70.9167 28.9375 72.2812 28.9375C74.4375 28.9375 75.849 28.1771 76.5156 26.6562C76.9115 25.7604 77.0938 24.1615 77.0625 21.8594C76.5 22.7135 75.8229 23.349 75.0312 23.7656C74.2396 24.1823 73.1927 24.3906 71.8906 24.3906C70.0781 24.3906 68.4896 23.75 67.125 22.4688C65.7708 21.1771 65.0938 19.0469 65.0938 16.0781C65.0938 13.276 65.776 11.0885 67.1406 9.51562C68.5156 7.94271 70.1719 7.15625 72.1094 7.15625ZM77.1719 15.75C77.1719 13.6771 76.7448 12.1406 75.8906 11.1406C75.0365 10.1406 73.9479 9.64062 72.625 9.64062C70.6458 9.64062 69.2917 10.5677 68.5625 12.4219C68.1771 13.4115 67.9844 14.7083 67.9844 16.3125C67.9844 18.1979 68.3646 19.6354 69.125 20.625C69.8958 21.6042 70.9271 22.0938 72.2188 22.0938C74.2396 22.0938 75.6615 21.1823 76.4844 19.3594C76.9427 18.3281 77.1719 17.125 77.1719 15.75ZM108.281 6.96875C110.167 6.96875 111.698 7.42708 112.875 8.34375C114.062 9.26042 114.776 10.8385 115.016 13.0781H112.281C112.115 12.0469 111.734 11.1927 111.141 10.5156C110.547 9.82812 109.594 9.48438 108.281 9.48438C106.49 9.48438 105.208 10.3594 104.438 12.1094C103.938 13.2448 103.688 14.6458 103.688 16.3125C103.688 17.9896 104.042 19.401 104.75 20.5469C105.458 21.6927 106.573 22.2656 108.094 22.2656C109.26 22.2656 110.182 21.9115 110.859 21.2031C111.547 20.4844 112.021 19.5052 112.281 18.2656H115.016C114.703 20.4844 113.922 22.1094 112.672 23.1406C111.422 24.1615 109.823 24.6719 107.875 24.6719C105.688 24.6719 103.943 23.875 102.641 22.2812C101.339 20.6771 100.688 18.6771 100.688 16.2812C100.688 13.3438 101.401 11.0573 102.828 9.42188C104.255 7.78646 106.073 6.96875 108.281 6.96875ZM117.828 1.15625H120.641V9.71875C121.307 8.875 121.906 8.28125 122.438 7.9375C123.344 7.34375 124.474 7.04688 125.828 7.04688C128.255 7.04688 129.901 7.89583 130.766 9.59375C131.234 10.5208 131.469 11.8073 131.469 13.4531V24.1875H128.578V13.6406C128.578 12.4115 128.422 11.5104 128.109 10.9375C127.599 10.0208 126.641 9.5625 125.234 9.5625C124.068 9.5625 123.01 9.96354 122.062 10.7656C121.115 11.5677 120.641 13.0833 120.641 15.3125V24.1875H117.828V1.15625ZM138.453 7.45312V18.5625C138.453 19.4167 138.589 20.1146 138.859 20.6562C139.359 21.6562 140.292 22.1562 141.656 22.1562C143.615 22.1562 144.948 21.2812 145.656 19.5312C146.042 18.5938 146.234 17.3073 146.234 15.6719V7.45312H149.047V24.1875H146.391L146.422 21.7188C146.057 22.3542 145.604 22.8906 145.062 23.3281C143.99 24.2031 142.688 24.6406 141.156 24.6406C138.771 24.6406 137.146 23.8438 136.281 22.25C135.812 21.3958 135.578 20.2552 135.578 18.8281V7.45312H138.453ZM142.484 1.54688C142.328 1.44271 142.167 1.36979 142 1.32812C141.844 1.27604 141.646 1.25 141.406 1.25C141.156 1.25 140.818 1.28125 140.391 1.34375L140.328 0.109375C140.557 0.078125 140.781 0.0520833 141 0.03125C141.229 0.0104167 141.448 0 141.656 0C142.188 0 142.677 0.0885417 143.125 0.265625C143.573 0.432292 143.969 0.760417 144.312 1.25C144.406 1.38542 144.484 1.5625 144.547 1.78125C144.62 2 144.656 2.23438 144.656 2.48438C144.656 2.69271 144.625 2.90625 144.562 3.125C144.5 3.34375 144.391 3.55208 144.234 3.75C144.078 3.9375 143.865 4.10417 143.594 4.25C143.333 4.39583 143.005 4.51042 142.609 4.59375L142.547 5.28125H141.172V4.09375C141.797 4.03125 142.276 3.84896 142.609 3.54688C142.953 3.23438 143.125 2.90104 143.125 2.54688C143.125 2.35938 143.073 2.18229 142.969 2.01562C142.865 1.83854 142.703 1.68229 142.484 1.54688Z" fill="#FDFFD6"/>
<path d="M166.766 1.23438H169.141L161.859 24.1875H159.484L166.766 1.23438ZM196.469 1.15625V5.23438H189.578V24.1875H184.734V5.23438H177.812V1.15625H196.469ZM202.953 7.15625V24.1875H198.438V7.15625H202.953ZM202.953 1.01562V5.125H198.438V1.01562H202.953ZM215.297 10.4531C213.786 10.4531 212.75 11.0938 212.188 12.375C211.896 13.0521 211.75 13.9167 211.75 14.9688V24.1875H207.312V7.1875H211.609V9.67188C212.182 8.79688 212.724 8.16667 213.234 7.78125C214.151 7.09375 215.312 6.75 216.719 6.75C218.479 6.75 219.917 7.21354 221.031 8.14062C222.156 9.05729 222.719 10.5833 222.719 12.7188V24.1875H218.156V13.8281C218.156 12.9323 218.036 12.2448 217.797 11.7656C217.359 10.8906 216.526 10.4531 215.297 10.4531ZM243.547 21.0156V24.3438L241.438 24.4219C239.333 24.4948 237.896 24.1302 237.125 23.3281C236.625 22.8177 236.375 22.0312 236.375 20.9688V10.4844H234V7.3125H236.375V2.5625H240.781V7.3125H243.547V10.4844H240.781V19.4844C240.781 20.1823 240.87 20.6198 241.047 20.7969C241.224 20.9635 241.766 21.0469 242.672 21.0469C242.807 21.0469 242.948 21.0469 243.094 21.0469C243.25 21.0365 243.401 21.026 243.547 21.0156ZM257.328 24.1875V21.7812C257.286 21.8333 257.182 21.9896 257.016 22.25C256.849 22.5104 256.651 22.7396 256.422 22.9375C255.724 23.5625 255.047 23.9896 254.391 24.2188C253.745 24.4479 252.984 24.5625 252.109 24.5625C249.589 24.5625 247.891 23.6562 247.016 21.8438C246.526 20.8438 246.281 19.3698 246.281 17.4219V7.15625H250.844V17.4219C250.844 18.3906 250.958 19.1198 251.188 19.6094C251.594 20.474 252.391 20.9062 253.578 20.9062C255.099 20.9062 256.141 20.2917 256.703 19.0625C256.995 18.3958 257.141 17.5156 257.141 16.4219V7.15625H261.656V9.4375C261.698 9.44792 261.74 9.45312 261.781 9.45312C262.5 9.52604 263.333 9.32812 264.281 8.85938L262.922 6.51562L266.953 4.1875L269.359 8.35938L265.875 10.375C265.26 10.7292 264.573 11.0208 263.812 11.25C263.083 11.4583 262.365 11.4948 261.656 11.3594V24.1875H257.328ZM252.016 5.42188L255.016 0.75H259.984L255.234 5.42188H252.016ZM286.922 13.2656H282.359C282.276 12.6302 282.062 12.0573 281.719 11.5469C281.219 10.8594 280.443 10.5156 279.391 10.5156C277.891 10.5156 276.865 11.2604 276.312 12.75C276.021 13.5417 275.875 14.5938 275.875 15.9062C275.875 17.1562 276.021 18.1615 276.312 18.9219C276.844 20.3385 277.844 21.0469 279.312 21.0469C280.354 21.0469 281.094 20.7656 281.531 20.2031C281.969 19.6406 282.234 18.9115 282.328 18.0156H286.875C286.771 19.3698 286.281 20.651 285.406 21.8594C284.01 23.8073 281.943 24.7812 279.203 24.7812C276.464 24.7812 274.448 23.9688 273.156 22.3438C271.865 20.7188 271.219 18.6094 271.219 16.0156C271.219 13.0885 271.932 10.8125 273.359 9.1875C274.786 7.5625 276.755 6.75 279.266 6.75C281.401 6.75 283.146 7.22917 284.5 8.1875C285.865 9.14583 286.672 10.8385 286.922 13.2656Z" fill="#FDFFD6"/>
</svg>
